<svg width="393" height="238" viewBox="0 0 393 238" fill="none" xmlns="http://www.w3.org/2000/svg">
<path d="M262.483 126.775C389.144 72.0733 456.491 96.5824 495.145 125.212L458.112 224.866L-116.636 154.847L-126.633 77.1019C-35.8278 122.81 150.893 174.967 262.483 126.775Z" fill="white" fill-opacity="0.2"/>
<g style="mix-blend-mode:soft-light" opacity="0.3">
<mask id="mask0_337_17" style="mask-type:alpha" maskUnits="userSpaceOnUse" x="279" y="0" width="114" height="146">
<path d="M279 0H393V146H279V0Z" fill="url(#paint0_linear_337_17)"/>
</mask>
<g mask="url(#mask0_337_17)">
<path d="M411.124 64.8128L316.722 119.22L314.918 122.126C324.411 119.04 324.554 123.4 330.297 123.153C325.081 127.594 321.217 137.709 315.644 139.979C311.107 141.831 302.665 145.47 299.689 146.757L292.837 157.867L295.33 161.208L415.241 99.6776L412.87 66.3387L411.124 64.8128Z" fill="#001C18"/>
<path d="M399.371 143.299C394.662 140.394 394.107 129.54 390.435 124.425C396.3 125.309 400.138 121.188 410.049 126.908L409.413 120.869L313.504 69.3555L285.655 96.3784L284.342 98.8361L411.718 165.757L413.901 163.475L412.676 151.857C410.119 150.17 403.166 145.637 399.371 143.299Z" fill="#001C18"/>
<path d="M410.053 126.908L408.17 128.905C406.071 127.382 403.631 126.396 401.064 126.032C396.993 125.533 395.605 127.561 389.959 126.319C389.429 125.965 389.049 125.427 388.892 124.808C388.736 124.19 388.815 123.536 389.113 122.972L401.199 121.511L410.053 126.908Z" fill="#001C18"/>
<path d="M399.371 143.299C394.662 140.394 394.107 129.54 390.435 124.425C396.3 125.309 400.138 121.188 410.049 126.908L409.413 120.869L308.163 67.756L285.655 96.3784L413.911 163.461L412.686 151.843C410.119 150.17 403.166 145.637 399.371 143.299Z" fill="#004B40"/>
<path d="M359.395 94.6278L322.73 115.761L353.021 131.608L391.88 111.665L359.395 94.6278Z" fill="#001C18"/>
<path d="M314.918 122.126L316.539 124.665C316.539 124.665 319.184 122.619 322.325 123.77C325.465 124.92 328.256 126.878 332.614 124.984C332.928 123.32 332.661 121.6 331.86 120.109C331.86 120.109 321.09 118.544 320.862 118.579C320.635 118.614 314.918 122.126 314.918 122.126Z" fill="#001C18"/>
<path d="M316.722 119.22L314.918 122.126C324.411 119.04 324.554 123.4 330.297 123.153C325.081 127.594 321.217 137.709 315.644 139.979C311.107 141.831 302.665 145.47 299.689 146.757L292.837 157.867L412.792 97.8391L411.124 64.8128L316.722 119.22Z" fill="#004B40"/>
<path d="M359.328 92.7113L315.506 115.194L346.13 131.283L348.97 129.78L359.328 92.7113Z" fill="#001C18"/>
<path d="M359.328 92.7112L318.573 113.622L348.97 129.78L359.328 92.7112Z" fill="#001C18"/>
<path d="M288.132 95.1234C288.132 95.1234 340.847 124.196 342.786 125.197C344.725 126.198 348.652 127.861 353.98 125.248C359.308 122.636 410.788 96.8154 410.788 96.8154L409.62 63.4212L409.133 62.6006L358.006 87.5028L312.617 63.8875L287.983 94.1564L288.132 95.1234Z" fill="#001C18"/>
<path d="M287.983 94.1564C287.983 94.1564 340.698 123.229 342.637 124.234C344.576 125.239 348.503 126.894 353.831 124.285C359.16 121.676 409.922 96.2416 409.922 96.2416L409.136 62.6205L357.853 86.5158L312.465 62.9044L287.983 94.1564Z" fill="#87D1A4"/>
<path d="M314.666 61.9254L289.407 93.6577L342.122 122.73C342.122 122.73 344.51 121.133 346.332 120.851C348.154 120.569 352.67 123.552 352.67 123.552L407.492 95.7993L407.039 62.5032L401.74 61.0691L358.841 84.4112L316.404 61.6564L314.666 61.9254Z" fill="#EFE8C5"/>
<path d="M293.969 91.54C293.969 91.54 305.793 97.5122 315.564 101.159C325.334 104.806 344.158 114.682 346.333 120.831C350.906 114.509 356.694 106.359 369.444 102.978C382.193 99.5969 397.98 95.4592 399.983 93.8318C400.233 88.1549 401.768 61.0362 401.768 61.0362C397.498 62.5547 393.144 63.8256 388.728 64.8426C381.918 66.3633 361.225 74.1735 358.861 84.4081C354.547 77.1794 349.249 73.3023 339.721 70.6407C330.194 67.979 316.404 61.6564 316.404 61.6564L293.969 91.54Z" fill="#FBF9EF"/>
<path d="M346.342 120.838C350.906 114.509 356.694 106.359 369.444 102.978C382.193 99.597 397.98 95.4593 399.983 93.8319C400.233 88.155 401.768 61.0363 401.768 61.0363C397.498 62.5548 393.144 63.8257 388.728 64.8427C381.918 66.3634 361.225 74.1736 358.861 84.4082L346.342 120.838Z" fill="#FBF9EF"/>
<path d="M378.814 101.716C355.098 110.399 346.342 120.838 346.342 120.838C348.176 120.554 352.68 123.539 352.68 123.539L407.503 95.7856C407.503 95.7856 402.386 94.45 399.965 93.8509C397.397 95.8933 392.265 96.7081 378.814 101.716Z" fill="#FBF9EF"/>
<path d="M328.824 105.412C320.196 101.297 293.969 91.54 293.969 91.54L289.387 93.6568L342.101 122.73C342.101 122.73 344.489 121.132 346.311 120.85C346.38 115.005 337.447 109.527 328.824 105.412Z" fill="#FBF9EF"/>
<path d="M328.824 105.412C320.196 101.297 293.969 91.54 293.969 91.54C293.969 91.54 328.309 107.557 332.669 109.612C337.03 111.666 345.513 117.304 346.342 120.838C346.38 115.005 337.447 109.527 328.824 105.412Z" fill="#FCCE98"/>
<path d="M293.694 92.8059C293.694 92.8059 338.195 114.967 346.342 120.838C340.138 114.752 307.806 98.3585 293.694 92.8059Z" fill="#FCCE98"/>
<path d="M292.38 93.0094L298.882 96.3726L305.369 99.7708L318.316 106.621L331.216 113.547L337.657 117.039L344.074 120.563L337.571 117.199L331.084 113.801L318.138 106.951L305.236 100.021L298.796 96.5331L292.38 93.0094Z" fill="#FCCE98"/>
<path d="M348.176 120.554C350.127 119.069 352.125 117.651 354.128 116.236C356.13 114.822 358.176 113.474 360.237 112.14C361.266 111.469 362.302 110.814 363.354 110.181C364.405 109.547 365.458 108.922 366.555 108.343C368.749 107.214 371.008 106.238 373.277 105.298C375.545 104.357 377.85 103.518 380.149 102.675C382.449 101.832 384.749 100.989 387.068 100.188C389.387 99.3876 391.675 98.5792 394.001 97.7406C396.319 96.9585 398.593 96.0505 400.813 95.0207C399.748 95.6326 398.647 96.1788 397.515 96.6564C396.393 97.1533 395.258 97.6155 394.127 98.081C391.845 98.9866 389.557 99.8523 387.266 100.727C382.686 102.462 378.079 104.129 373.559 105.986C371.294 106.898 369.04 107.848 366.873 108.944C365.797 109.496 364.735 110.094 363.684 110.731L360.538 112.609C358.448 113.882 356.38 115.192 354.328 116.524C352.276 117.857 350.222 119.206 348.176 120.554Z" fill="#FCCE98"/>
<path d="M350.136 120.766C354.168 118.123 358.307 115.658 362.554 113.369C364.671 112.223 366.82 111.125 369 110.076C370.08 109.545 371.182 109.055 372.278 108.55C373.375 108.044 374.489 107.581 375.6 107.119C380.043 105.265 384.465 103.353 388.876 101.427C391.084 100.466 393.285 99.4893 395.48 98.4976C396.578 98.0044 397.676 97.5112 398.763 96.9993C399.85 96.4874 400.945 95.9782 402.001 95.3974C397.783 97.7278 393.372 99.6831 388.994 101.687C384.615 103.69 380.185 105.575 375.743 107.461C371.287 109.28 366.94 111.381 362.695 113.617C360.566 114.732 358.455 115.89 356.363 117.089C354.26 118.278 352.182 119.496 350.136 120.766Z" fill="#FCCE98"/>
<path d="M345.045 113.228L344.571 112.622C342.991 110.661 336.341 106.322 329.805 103.451C323.557 100.703 305.076 92.3533 304.888 92.272L304.445 92.0542L322.435 66.5452L322.81 66.7203C322.967 66.782 338.475 72.7689 344.608 75.5388C350.74 78.3087 355.963 83.2898 356.016 83.3429L356.378 83.7819L356.335 83.895C356.274 84.0599 350.144 100.282 345.165 112.947L345.045 113.228ZM305.245 92.0162C307.293 92.9267 324.063 100.51 329.952 103.105C335.84 105.7 342.569 109.842 344.657 112.15C349.388 100.101 355.108 84.985 355.665 83.5077C354.957 82.848 350.111 78.4184 344.453 75.8614C338.638 73.2348 324.369 67.6983 322.808 67.1052L305.245 92.0162Z" fill="#004B40"/>
<path d="M351.217 112.104L350.49 113.113L360.577 82.9111L360.597 82.908C360.636 82.8486 364.724 76.9788 370.069 74.032C378.173 69.7948 392.544 66.0768 392.688 66.03L393.636 65.785L393.597 66.0611L389.525 93.1963L389.507 93.3218L388.72 93.5254C356.84 100.666 351.286 111.996 351.217 112.104ZM360.931 83.0894L351.711 110.751C354.088 107.601 362.728 99.0054 388.533 93.1862C389.619 85.9561 392.183 68.8454 392.542 66.4577C390.517 66.992 377.723 70.4537 370.277 74.3435C365.154 77.1454 361.2 82.6836 360.931 83.0894Z" fill="#004B40"/>
</g>
</g>
<defs>
<linearGradient id="paint0_linear_337_17" x1="279" y1="0" x2="404.694" y2="12.2794" gradientUnits="userSpaceOnUse">
<stop offset="0.00892858" stop-color="#006754"/>
<stop offset="1" stop-color="#87D1A4"/>
</linearGradient>
</defs>
</svg>
