<svg width="99" height="55" viewBox="0 0 99 55" fill="none" xmlns="http://www.w3.org/2000/svg">
<path d="M82.8948 2.58472L49.4656 14.0103L16.0026 2.58472L0 25.8427L49.4656 42.7607L98.8973 25.8427L82.8948 2.58472Z" fill="#006754"/>
<path opacity="0.45" d="M5.83142 24.8934L46.855 40.5908L32.751 26.6225C32.751 26.6225 9.59474 21.0284 5.83142 24.8934Z" fill="#004B40"/>
<path opacity="0.45" d="M93.0999 24.8934L52.0763 40.5908L66.1803 26.6225C66.1464 26.6225 89.3026 21.0284 93.0999 24.8934Z" fill="#004B40"/>
<path d="M49.4656 42.7608L0 25.8428L0 28.0465L49.4656 44.9645L98.8973 28.0465V25.8428L49.4656 42.7608Z" fill="#A85000"/>
<path d="M23.1224 52.9319L28.8522 37.9125L47.2958 44.2186L23.1224 52.9319Z" fill="#773A08"/>
<path opacity="0.45" d="M24.7159 48.5922L47.2959 44.2186L28.8522 37.9125L24.7159 48.5922Z" fill="#773A08"/>
<path d="M49.4657 43.4388L23.1224 52.9319L25.0889 55L49.4657 46.3207L73.8086 55L75.8089 52.9319L49.4657 43.4388Z" fill="#BDF8D4"/>
<path d="M75.8089 52.9319L70.0452 37.9125L51.6016 44.2186L75.8089 52.9319Z" fill="#773A08"/>
<path opacity="0.45" d="M74.1815 48.5922L51.6016 44.2186L70.0452 37.9125L74.1815 48.5922Z" fill="#773A08"/>
<path d="M49.4656 46.3206C50.458 46.3206 51.2625 45.5161 51.2625 44.5237C51.2625 43.5313 50.458 42.7268 49.4656 42.7268C48.4732 42.7268 47.6687 43.5313 47.6687 44.5237C47.6687 45.5161 48.4732 46.3206 49.4656 46.3206Z" fill="white" fill-opacity="0.5"/>
<path d="M81.4708 2.58472L49.4656 18.5195L17.4604 2.58472C16.0026 4.51723 4.27185 24.0797 4.27185 24.0797C4.40747 24.0797 4.50918 24.1136 4.64479 24.1136C34.0733 27.0633 42.2441 36.319 44.9564 38.5566C47.6687 40.8282 49.4995 40.5909 49.4995 40.5909C49.4995 40.5909 51.3303 40.8282 54.0426 38.5566C56.7549 36.319 64.9257 27.0633 94.3542 24.1136C94.4898 24.1136 94.5916 24.0797 94.7272 24.0797C94.6594 24.0797 82.8947 4.55114 81.4708 2.58472Z" fill="#F5B304"/>
<path d="M94.6594 24.0798C94.5238 24.0798 94.4221 24.1137 94.2865 24.1137C64.858 27.0634 56.6872 36.3191 53.9749 38.5568C51.2626 40.8283 49.4318 40.591 49.4318 40.591C49.4318 40.591 47.601 40.8283 44.8887 38.5568C42.1764 36.3191 34.0055 27.0634 4.57705 24.1137C4.44144 24.1137 4.33973 24.0798 4.20411 24.0798C3.96678 24.4528 4.20411 24.724 4.20411 24.724C33.9377 27.6058 41.8373 36.8955 44.5496 39.167C47.2619 41.4047 49.3979 41.2352 49.3979 41.2352C49.3979 41.2352 51.5338 41.4047 54.2461 39.167C56.9584 36.9294 64.858 27.6397 94.5916 24.724C94.6594 24.724 94.8967 24.4528 94.6594 24.0798Z" fill="#87D1A4"/>
<path d="M80.2504 0.720041C63.8749 -3.2128 49.4318 10.247 49.4318 10.247C49.4318 10.247 34.9888 -3.2128 18.6133 0.720041C18.6133 0.720041 13.9685 7.83983 7.56067 19.9435C7.56067 19.9435 39.8032 23.5712 49.4318 37.0988C59.0605 23.5712 91.303 19.9435 91.303 19.9435C84.8952 7.83983 80.2504 0.720041 80.2504 0.720041Z" fill="#FBF9EF"/>
<path d="M91.303 19.9435C91.303 19.9435 59.0605 23.5712 49.4318 37.0988C39.837 23.5712 7.59451 19.9435 7.59451 19.9435C7.59451 19.9435 7.59451 21.0284 5.79761 23.1643C5.79761 23.1643 35.0566 25.2664 45.7024 37.4039C48.2112 40.2518 49.4318 39.9128 49.4318 39.9128C49.4318 39.9128 50.6862 40.2518 53.1612 37.4039C63.7731 25.2664 93.066 23.1643 93.066 23.1643C91.303 20.9945 91.303 19.9435 91.303 19.9435Z" fill="#BDF8D4"/>
<path d="M78.4195 2.14403C78.4195 2.14403 66.1802 -0.975121 49.4318 12.01C32.7172 -0.941218 20.444 2.14403 20.444 2.14403L12.1715 18.2144C37.3281 19.9435 49.4318 32.6574 49.4318 32.6574C49.4318 32.6574 61.5354 19.9435 86.692 18.2144L78.4195 2.14403ZM49.4657 31.1318C49.4657 31.1318 38.1418 19.5367 14.1379 17.2651L21.0882 2.82211C21.0882 2.82211 33.1241 0.482745 49.4657 12.7559C65.8073 0.482745 77.8431 2.82211 77.8431 2.82211L84.7934 17.2651C60.7895 19.5367 49.4657 31.1318 49.4657 31.1318Z" fill="#006754"/>
<path opacity="0.2" d="M52.5509 24.1114C57.0714 20.7776 71.198 13.3999 80.691 14.4171" stroke="#BDF8D4" stroke-width="3" stroke-linecap="round"/>
<path opacity="0.2" d="M52.5509 14.7561C56.5629 11.6148 66.9939 5.46 76.6226 5.97113" stroke="#BDF8D4" stroke-width="3" stroke-linecap="round"/>
<path opacity="0.2" d="M52.5509 19.5027C56.9019 16.1198 68.2145 9.49147 78.6568 10.0419" stroke="#BDF8D4" stroke-width="3" stroke-linecap="round"/>
<path opacity="0.2" d="M46.7872 24.1114C42.2667 20.7776 28.1402 13.3999 18.6471 14.4171" stroke="#BDF8D4" stroke-width="3" stroke-linecap="round"/>
<path opacity="0.2" d="M46.7872 14.7561C42.7753 11.6148 32.3442 5.46 22.7155 5.97113" stroke="#BDF8D4" stroke-width="3" stroke-linecap="round"/>
<path opacity="0.2" d="M46.7872 19.5027C42.4362 16.1198 31.1237 9.49147 20.6813 10.0419" stroke="#BDF8D4" stroke-width="3" stroke-linecap="round"/>
<path d="M49.4657 10.247C49.4657 10.247 49.8047 9.06038 50.4489 9.39942C50.4489 9.39942 50.042 28.6229 50.7201 36.1156C50.8896 37.9803 52.517 40.5231 53.1612 41.4724H52.3136L52.0763 42.2522C52.0763 42.2522 49.5674 38.0142 49.4657 36.3529C48.9571 28.8941 49.2283 12.0439 49.4657 10.247Z" fill="#BC8F7B"/>
</svg>
