<svg width="61" height="104" viewBox="0 0 61 104" fill="none" xmlns="http://www.w3.org/2000/svg">
<path d="M10.2583 96.7474L10.0955 96.6829C14.7841 84.6528 15.0392 78.2329 15.0559 78.1704L15.2343 78.1763C15.2293 78.242 14.9601 84.6832 10.2583 96.7474Z" fill="#992B2B"/>
<path d="M10.772 96.8767L10.6093 96.8121C15.2978 84.7821 15.5529 78.3622 15.5697 78.2997L15.747 78.3095C15.7431 78.3712 15.4778 84.8136 10.772 96.8767Z" fill="#992B2B"/>
<path d="M9.34872 96.3613L9.18601 96.2967C13.8756 84.2628 14.2897 77.718 14.2948 77.6524L14.4721 77.6622C14.4671 77.7279 14.0506 84.2971 9.34872 96.3613Z" fill="#992B2B"/>
<path d="M5.05977 94.1991L4.89183 94.1541C4.92846 94.0174 9.98332 80.792 14.4367 77.6695L14.5363 77.8134C10.1327 80.8906 5.11202 94.0665 5.05977 94.1991Z" fill="#992B2B"/>
<path d="M5.34492 94.2755L5.17699 94.2305C5.21361 94.0938 10.2646 80.8674 14.7218 77.7459L14.8214 77.8898C10.414 80.966 5.39717 94.143 5.34492 94.2755Z" fill="#992B2B"/>
<path d="M5.74654 94.8854L5.58384 94.8208C10.4865 81.6635 14.9495 77.6771 14.9944 77.6347L15.1127 77.7711C15.0884 77.8148 10.6317 81.7778 5.74654 94.8854Z" fill="#992B2B"/>
<path d="M6.15668 95.1669L5.98483 95.1209C10.8914 81.9646 15.3596 77.9587 15.3993 77.9358L15.5147 78.0672C15.4751 78.0901 11.0418 82.0594 6.15668 95.1669Z" fill="#992B2B"/>
<path d="M8.92601 96.361L8.76435 96.2926C8.8226 96.1533 14.6966 82.2768 14.453 77.9836L14.6317 77.9729C14.8765 82.3082 9.171 95.7904 8.92601 96.361Z" fill="#992B2B"/>
<path d="M9.57924 96.7035L9.41263 96.6379C9.4524 96.4895 15.0723 82.4988 14.7412 78.2199L14.917 78.2043C15.2533 82.5264 9.81175 96.117 9.57924 96.7035Z" fill="#992B2B"/>
<path d="M6.62952 95.1053L6.46786 95.0369C6.73741 94.4058 13.0574 79.6148 14.5927 78.1342L14.717 78.2638C13.2057 79.7174 6.69586 94.9514 6.62952 95.1053Z" fill="#992B2B"/>
<path d="M8.3494 95.8885L8.18488 95.8151C8.23476 95.707 13.2115 84.6793 14.6876 78.4986L14.8555 78.5437C13.3802 84.7371 8.39928 95.7804 8.3494 95.8885Z" fill="#992B2B"/>
<path d="M8.06918 95.8092L7.90857 95.7368C7.95949 95.6249 12.9323 84.5961 14.4084 78.4154L14.5763 78.4604C13.101 84.6539 8.1201 95.6972 8.06918 95.8092Z" fill="#992B2B"/>
<path d="M7.53468 95.6324L7.36673 95.5874C9.66385 89.5765 15.0466 77.5023 15.1045 77.3797L15.2651 77.452C15.2153 77.56 9.82971 89.6294 7.53468 95.6324Z" fill="#992B2B"/>
<path d="M7.24964 95.556L7.0817 95.511C9.37882 89.5001 14.7654 77.4269 14.8195 77.3033L14.9801 77.3756C14.9302 77.4836 9.54858 89.554 7.24964 95.556Z" fill="#992B2B"/>
<path d="M10.5385 96.8266L10.3651 96.755C15.1981 84.7637 15.3087 78.305 15.3244 78.2464L15.5078 78.2495C15.5116 78.3134 15.3859 84.7972 10.5385 96.8266Z" fill="#BC4646"/>
<path d="M9.53223 96.4104L9.35885 96.3389C14.1908 84.3514 14.3015 77.8928 14.3182 77.8303L14.5016 77.8334C14.5043 77.9011 14.3786 84.385 9.53223 96.4104Z" fill="#BC4646"/>
<path d="M4.76576 94.1244L4.59134 94.0568C4.62797 93.9201 9.8362 80.7316 14.6411 77.7033L14.7414 77.86C9.98321 80.8547 4.81801 93.9919 4.76576 94.1244Z" fill="#BC4646"/>
<path d="M5.07827 94.2082L4.90775 94.1416C4.94438 94.0049 10.1526 80.8165 14.9536 77.7871L15.0539 77.9438C10.2957 80.9385 5.13052 94.0757 5.07827 94.2082Z" fill="#BC4646"/>
<path d="M5.46595 94.7768L5.29153 94.7091C10.3319 81.5846 15.1311 77.6715 15.1757 77.6458L15.2919 77.7899C15.2442 77.8274 10.4829 81.7087 5.46595 94.7768Z" fill="#BC4646"/>
<path d="M5.86329 95.059L5.68886 94.9914C10.7282 81.8707 15.5323 77.9548 15.5769 77.929L15.6921 78.0771C15.6348 78.1036 10.8706 81.98 5.86329 95.059Z" fill="#BC4646"/>
<path d="M9.18705 96.4644L9.01862 96.39C9.07687 96.2507 15.1607 82.4346 14.7794 78.1087L14.9641 78.0913C15.3495 82.4643 9.43985 95.8959 9.18705 96.4644Z" fill="#992B2B"/>
<path d="M9.79023 96.7601L9.62076 96.6896C9.65948 96.5451 15.4591 82.6025 14.9707 78.2857L15.1564 78.2643C15.6479 82.6322 10.0345 96.1767 9.79023 96.7601Z" fill="#BC4646"/>
<path d="M6.30833 94.9605L6.13991 94.8861C6.41726 94.2572 12.9715 79.529 14.6173 78.0737L14.7434 78.2121C13.1295 79.6425 6.38639 94.8098 6.30833 94.9605Z" fill="#BC4646"/>
<path d="M8.57761 96.0207L8.41023 95.9424C8.44162 95.8252 13.636 84.86 15.0887 78.6731L15.2644 78.7202C13.8125 84.9199 8.62853 95.9088 8.57761 96.0207Z" fill="#BC4646"/>
<path d="M7.6605 95.6787L7.49522 95.5926C7.55109 95.4778 13.235 84.154 14.6937 77.9603L14.8734 78.0084C13.4136 84.206 7.71847 95.5561 7.6605 95.6787Z" fill="#BC4646"/>
<path d="M7.51914 95.6283L7.34861 95.5617C9.71108 89.5725 15.3057 77.5508 15.3627 77.4321L15.53 77.5105C15.477 77.6302 9.88447 89.6441 7.51914 95.6283Z" fill="#BC4646"/>
<path d="M6.89426 95.4608L6.72374 95.3942C9.09116 89.4021 14.6848 77.3844 14.7378 77.2646L14.9052 77.343C14.8521 77.4627 9.25958 89.4766 6.89426 95.4608Z" fill="#BC4646"/>
<g style="mix-blend-mode:multiply">
<path d="M40.7942 10.2967C41.0974 10.2691 41.3911 10.1762 41.6551 10.0244C41.919 9.87254 42.147 9.66541 42.3233 9.41718C42.291 9.59389 42.2808 9.77392 42.2927 9.95315C42.3108 10.2297 42.3837 10.4998 42.5072 10.7479C42.6308 10.9959 42.8025 11.2168 43.0124 11.3978C43.2223 11.5787 43.4661 11.716 43.7296 11.8017C43.9932 11.8874 44.2711 11.9197 44.5473 11.8968C44.9954 11.8618 45.4199 11.6816 45.7564 11.3836C45.5991 11.7198 45.5314 12.091 45.5598 12.4611C45.5774 12.7373 45.6499 13.0073 45.7731 13.2552C45.8963 13.5031 46.0677 13.724 46.2773 13.9048C46.4868 14.0857 46.7303 14.223 46.9936 14.3086C47.2568 14.3943 47.5345 14.4266 47.8104 14.4037C47.8742 14.3998 47.9312 14.39 47.9922 14.3812C47.9344 14.6082 47.9139 14.843 47.9315 15.0766C47.9491 15.3528 48.0216 15.6228 48.1448 15.8707C48.268 16.1186 48.4394 16.3394 48.649 16.5203C48.8585 16.7012 49.1021 16.8385 49.3653 16.9241C49.6285 17.0098 49.9062 17.0421 50.1821 17.0191C50.3312 17.01 50.4788 16.9835 50.6218 16.9402C50.3927 17.1612 50.2153 17.43 50.1023 17.7276C49.9893 18.0251 49.9435 18.344 49.9681 18.6613C50.0029 19.1876 50.2354 19.6812 50.619 20.0433C51.0025 20.4053 51.5087 20.609 52.0361 20.6135C51.7213 20.8277 51.4685 21.1211 51.3031 21.464C51.1378 21.807 51.0656 22.1874 51.0941 22.5671C51.1121 22.8437 51.185 23.1138 51.3085 23.3618C51.4321 23.6099 51.6038 23.8308 51.8137 24.0117C52.0236 24.1927 52.2674 24.33 52.5309 24.4157C52.7945 24.5013 53.0724 24.5337 53.3486 24.5108C53.9086 24.4553 54.4245 24.1827 54.7858 23.7513C55.1471 23.3199 55.325 22.7641 55.2813 22.2031C55.2465 21.677 55.0137 21.1836 54.6298 20.8221C54.246 20.4607 53.7395 20.258 53.2123 20.2547C53.5278 20.0403 53.7812 19.7464 53.9468 19.4027C54.1124 19.059 54.1844 18.6777 54.1554 18.2972C54.1372 18.0212 54.0643 17.7515 53.9409 17.5038C53.8175 17.2562 53.6462 17.0356 53.4367 16.8548C53.2273 16.674 52.984 16.5367 52.721 16.4509C52.458 16.365 52.1805 16.3323 51.9047 16.3547C51.7558 16.3657 51.6085 16.3921 51.465 16.4336C51.6941 16.2126 51.8715 15.9437 51.9845 15.6462C52.0975 15.3487 52.1433 15.0298 52.1187 14.7125C52.1011 14.4362 52.0286 14.1663 51.9054 13.9184C51.7822 13.6705 51.6108 13.4496 51.4012 13.2688C51.1916 13.0879 50.9481 12.9506 50.6849 12.865C50.4217 12.7793 50.144 12.747 49.8681 12.7699C49.8066 12.7742 49.7455 12.783 49.6852 12.7963C49.7434 12.5681 49.7643 12.3319 49.747 12.097C49.7226 11.7066 49.5884 11.331 49.36 11.0135C49.1316 10.6959 48.8182 10.4492 48.4558 10.3019C48.0934 10.1545 47.6968 10.1124 47.3116 10.1803C46.9264 10.2483 46.5682 10.4237 46.2781 10.6862C46.437 10.3493 46.5065 9.97724 46.4797 9.60577C46.4612 9.32944 46.3879 9.05955 46.2642 8.81178C46.1404 8.56401 45.9687 8.3433 45.7589 8.16247C45.5492 7.98163 45.3056 7.84428 45.0423 7.75839C44.779 7.67251 44.5012 7.63979 44.2252 7.66216C43.9222 7.69057 43.6288 7.78381 43.3649 7.93557C43.1011 8.08732 42.873 8.29405 42.6961 8.54171C42.7303 8.36524 42.7406 8.18495 42.7266 8.00573C42.709 7.72947 42.6365 7.45949 42.5133 7.2116C42.3901 6.9637 42.2187 6.74286 42.0091 6.56198C41.7996 6.3811 41.5561 6.24382 41.2928 6.15818C41.0296 6.07253 40.7519 6.04023 40.476 6.06316C39.9152 6.11656 39.398 6.38864 39.0363 6.82053C38.6746 7.25241 38.4975 7.80935 38.5433 8.37083C38.5636 8.64548 38.638 8.91339 38.7623 9.15913C38.8866 9.40486 39.0584 9.62355 39.2676 9.80259C39.4769 9.98163 39.7195 10.1175 39.9815 10.2023C40.2435 10.2871 40.5197 10.3192 40.7942 10.2967Z" fill="#FFE6BD"/>
<path d="M32.5873 10.1489C33.1432 10.0948 33.6562 9.82624 34.0173 9.40015C34.3785 8.97406 34.5594 8.42401 34.5216 7.86675C34.65 8.33407 34.9377 8.74182 35.3349 9.01948C35.7321 9.29713 36.2139 9.42724 36.6969 9.38729C37.2573 9.33288 37.7739 9.06051 38.1354 8.62887C38.4969 8.19724 38.6744 7.64087 38.6297 7.07962C38.612 6.80336 38.5395 6.53339 38.4163 6.28549C38.2931 6.03759 38.1217 5.81675 37.9121 5.63587C37.7026 5.455 37.4591 5.31772 37.1958 5.23207C36.9326 5.14642 36.6549 5.11411 36.379 5.13705C35.8227 5.19013 35.3091 5.45843 34.9478 5.88475C34.5864 6.31108 34.4059 6.86169 34.4448 7.41919C34.3178 6.95014 34.03 6.54068 33.6316 6.2625C33.2332 5.98432 32.7496 5.85515 32.2655 5.89761C31.7046 5.95106 31.1872 6.22286 30.8249 6.65438C30.4626 7.08589 30.2845 7.64254 30.3289 8.20423C30.3467 8.4812 30.4197 8.75182 30.5434 9.00024C30.6672 9.24867 30.8392 9.46991 31.0496 9.651C31.2599 9.8321 31.5042 9.96942 31.7683 10.0549C32.0323 10.1404 32.3108 10.1724 32.5873 10.1489Z" fill="#FFE6BD"/>
<path d="M34.5105 46.7139C34.488 46.3887 34.3903 46.0731 34.2252 45.7921C34.0601 45.5111 33.832 45.2722 33.5589 45.0942C34.0785 44.9949 34.5432 44.7072 34.8638 44.2864C35.1844 43.8655 35.3383 43.3411 35.296 42.8137C35.2659 42.3832 35.1038 41.9724 34.8318 41.6373C34.5598 41.3022 34.191 41.0592 33.7759 40.9413C34.0951 40.7275 34.3512 40.432 34.5176 40.0857C34.684 39.7394 34.7546 39.3549 34.7221 38.9721C34.6879 38.4544 34.4624 37.9679 34.0894 37.6072C33.7164 37.2466 33.2227 37.0375 32.7041 37.0207C32.959 36.7992 33.1587 36.5214 33.2874 36.2093C33.416 35.8971 33.4702 35.5593 33.4454 35.2226C33.4117 34.7265 33.2026 34.2585 32.8555 33.9025C32.5084 33.5464 32.046 33.3255 31.5509 33.2791C31.7341 32.9216 31.8155 32.5206 31.7861 32.1199C31.7502 31.5787 31.5046 31.0729 31.1015 30.71C30.6984 30.3472 30.1697 30.1559 29.6277 30.1769C29.8236 29.8133 29.9122 29.4015 29.8831 28.9895C29.8488 28.4681 29.6205 27.9785 29.2432 27.6171C28.8659 27.2556 28.3669 27.0486 27.8445 27.0368C28.0395 26.6726 28.1267 26.2604 28.096 25.8484C28.0639 25.3811 27.8762 24.938 27.5627 24.5899C27.2493 24.2418 26.8282 24.0089 26.3667 23.9283C26.7241 23.4967 26.8982 22.9423 26.8517 22.3839C26.8252 21.9957 26.6912 21.6225 26.4648 21.3061C26.2383 20.9897 25.9284 20.7424 25.5696 20.592C25.7639 20.3753 25.9125 20.1216 26.0064 19.8461C26.1004 19.5706 26.1378 19.279 26.1164 18.9887C26.0816 18.4868 25.8682 18.0138 25.515 17.6555C25.7931 17.5352 26.0428 17.3577 26.2477 17.1345C26.4527 16.9114 26.6084 16.6476 26.7047 16.3603C26.8011 16.073 26.8359 15.7687 26.8068 15.467C26.7778 15.1654 26.6856 14.8733 26.5363 14.6097C27.0697 14.5309 27.5538 14.254 27.8921 13.8341C28.2304 13.4143 28.3979 12.8823 28.3614 12.3443C28.3568 12.2658 28.347 12.1876 28.332 12.1104C28.4862 12.132 28.6425 12.136 28.7976 12.1222C29.3585 12.0688 29.8757 11.7967 30.2374 11.3648C30.5991 10.9329 30.7762 10.376 30.7304 9.8145C30.7128 9.53823 30.6402 9.26826 30.517 9.02036C30.3938 8.77247 30.2224 8.55162 30.0129 8.37075C29.8033 8.18987 29.5598 8.05259 29.2966 7.96694C29.0333 7.88129 28.7556 7.849 28.4798 7.87193C27.9194 7.92634 27.4028 8.1987 27.0413 8.63034C26.6798 9.06198 26.5023 9.61835 26.547 10.1796C26.5529 10.2586 26.564 10.3371 26.5803 10.4146C26.4248 10.3921 26.2673 10.3878 26.1108 10.4018C25.7542 10.4378 25.4123 10.5622 25.116 10.7637C24.8197 10.9652 24.5783 11.2374 24.4136 11.5557C24.249 11.8739 24.1663 12.2282 24.173 12.5865C24.1798 12.9448 24.2757 13.2957 24.4523 13.6075C23.9153 13.6887 23.4291 13.9702 23.0914 14.3955C22.7538 14.8207 22.5898 15.3581 22.6326 15.8995C22.6679 16.4004 22.8816 16.872 23.235 17.2288C22.8183 17.4068 22.4681 17.7114 22.2342 18.0995C22.0002 18.4876 21.8943 18.9394 21.9314 19.3911C21.9586 19.7797 22.0933 20.1532 22.3203 20.4698C22.5474 20.7864 22.858 21.0337 23.2175 21.184C23.0229 21.4014 22.8741 21.6557 22.7799 21.9318C22.6858 22.208 22.6483 22.5002 22.6696 22.7912C22.7017 23.2585 22.8894 23.7016 23.2029 24.0496C23.5163 24.3977 23.9374 24.6306 24.3988 24.7112C24.0434 25.1439 23.8695 25.6975 23.9139 26.2557C23.9481 26.777 24.1764 27.2667 24.5538 27.6281C24.9311 27.9896 25.4301 28.1966 25.9524 28.2084C25.7561 28.5718 25.6675 28.9838 25.6971 29.3958C25.7337 29.9376 25.9798 30.4439 26.3832 30.8075C26.7866 31.171 27.3156 31.3634 27.8584 31.3437C27.6616 31.707 27.573 32.119 27.603 32.5311C27.6351 33.0277 27.8436 33.4966 28.1911 33.853C28.5385 34.2094 29.0019 34.4298 29.4976 34.4745C29.3144 34.8321 29.233 35.2331 29.2623 35.6338C29.2957 36.1516 29.5212 36.6383 29.8947 36.9985C30.2681 37.3588 30.7627 37.5666 31.2813 37.5813C31.026 37.8032 30.8259 38.0817 30.6971 38.3945C30.5682 38.7073 30.5141 39.0459 30.539 39.3833C30.5691 39.8138 30.7312 40.2246 31.0032 40.5597C31.2752 40.8947 31.6439 41.1378 32.0591 41.2557C31.7414 41.471 31.4865 41.7667 31.3203 42.1126C31.154 42.4585 31.0825 42.8423 31.1128 43.2249C31.1363 43.55 31.2349 43.8652 31.4009 44.1458C31.5669 44.4263 31.7957 44.6645 32.0694 44.8416C31.5487 44.9408 31.083 45.2286 30.7615 45.65C30.44 46.0714 30.2854 46.5967 30.3273 47.1251C30.3577 47.547 30.5135 47.9503 30.7747 48.2831C30.4687 48.152 30.135 48.0985 29.8034 48.1274C29.2529 48.1846 28.7457 48.4518 28.3871 48.8734C28.0286 49.295 27.8463 49.8386 27.8783 50.3911C27.9137 50.8795 28.117 51.3407 28.4536 51.6964C28.245 51.512 28.0011 51.3719 27.7367 51.2845C27.4723 51.1971 27.1929 51.1643 26.9155 51.188C26.3546 51.2414 25.8374 51.5135 25.4757 51.9453C25.114 52.3772 24.9369 52.9342 24.9827 53.4957C25.0188 54.0067 25.2398 54.487 25.6044 54.8469C25.2599 54.6671 24.8713 54.5891 24.4842 54.622C23.9238 54.6765 23.4072 54.9488 23.0457 55.3805C22.6841 55.8121 22.5067 56.3685 22.5514 56.9297C22.5882 57.4874 22.8447 58.0078 23.2646 58.3766C23.0132 58.2993 22.7493 58.2713 22.4873 58.2939C21.9265 58.3473 21.4092 58.6194 21.0475 59.0513C20.6858 59.4832 20.5087 60.0401 20.5545 60.6016C20.5819 61.0059 20.7257 61.3936 20.9686 61.7179C21.2115 62.0422 21.5431 62.2893 21.9234 62.4293C21.8799 62.4277 21.8363 62.4286 21.7929 62.432C21.2325 62.4864 20.7159 62.7587 20.3544 63.1904C19.9929 63.622 19.8154 64.1784 19.8602 64.7396C19.8952 65.2048 20.0833 65.6453 20.3952 65.9923C21.5014 65.9413 22.5979 65.7704 23.7033 65.7066C23.9632 65.3145 24.0881 64.8483 24.0591 64.3787C24.0315 63.9749 23.8874 63.5877 23.6442 63.264C23.4011 62.9403 23.0694 62.694 22.6892 62.5549L22.8208 62.5483C23.3808 62.4929 23.8967 62.2203 24.258 61.7889C24.6193 61.3575 24.7972 60.8017 24.7535 60.2407C24.7154 59.6833 24.4592 59.1634 24.0403 58.7938C24.2913 58.873 24.5556 58.9011 24.8177 58.8765C25.2227 58.8362 25.6079 58.6819 25.9287 58.4315C26.2495 58.181 26.4927 57.8447 26.63 57.4615C26.7673 57.0784 26.7931 56.6642 26.7043 56.267C26.6156 55.8698 26.416 55.5059 26.1287 55.2176C26.4732 55.3974 26.8618 55.4754 27.2489 55.4424C27.8093 55.388 28.3259 55.1156 28.6875 54.684C29.049 54.2524 29.2264 53.696 29.1817 53.1347C29.1462 52.6463 28.943 52.1851 28.6063 51.8294C28.8148 52.014 29.0584 52.1545 29.3226 52.2426C29.5867 52.3306 29.8659 52.3643 30.1435 52.3418C30.5263 52.303 30.8918 52.1625 31.202 51.9347C31.5122 51.7069 31.7557 51.4003 31.9073 51.0466C32.0589 50.6929 32.113 50.305 32.064 49.9234C32.0151 49.5417 31.8648 49.1801 31.6288 48.8761C31.935 49.0028 32.2671 49.0545 32.5973 49.0268C33.1551 48.9676 33.6677 48.6924 34.0252 48.2602C34.3828 47.8279 34.557 47.2729 34.5105 46.7139Z" fill="#FFE6BD"/>
<path d="M52.1491 33.0176C52.3059 33.0399 52.4648 33.0445 52.6226 33.0314C53.1826 32.976 53.6986 32.7034 54.0599 32.272C54.4212 31.8406 54.5991 31.2848 54.5554 30.7238C54.5229 30.2495 54.33 29.8004 54.0084 29.4503C53.6869 29.1002 53.2558 28.8698 52.786 28.7972L52.8832 28.7939C53.4436 28.7395 53.9602 28.4671 54.3217 28.0355C54.6832 27.6038 54.8607 27.0475 54.8159 26.4862C54.7983 26.21 54.7258 25.94 54.6026 25.6921C54.4794 25.4442 54.308 25.2233 54.0984 25.0425C53.8889 24.8616 53.6453 24.7243 53.3821 24.6387C53.1189 24.553 52.8412 24.5207 52.5653 24.5436C52.0049 24.5981 51.4883 24.8704 51.1268 25.3021C50.7653 25.7337 50.5878 26.2901 50.6326 26.8513C50.6651 27.3256 50.8579 27.7747 51.1795 28.1248C51.501 28.4749 51.9321 28.7053 52.4019 28.7779L52.3047 28.7812C51.7438 28.8347 51.2264 29.1065 50.8641 29.538C50.5018 29.9695 50.3237 30.5261 50.3681 31.0878C50.3903 31.3974 50.4804 31.6983 50.6322 31.9691C50.7839 32.2398 50.9935 32.4737 51.246 32.6542C51.0905 32.6317 50.9329 32.6274 50.7764 32.6414C50.3457 32.6844 49.938 32.8564 49.6065 33.1348C49.2751 33.4133 49.0354 33.7852 48.9187 34.2021C48.802 34.6189 48.8139 35.0613 48.9526 35.4713C49.0914 35.8814 49.3506 36.24 49.6964 36.5003C49.4723 36.4415 49.2397 36.4217 49.0089 36.4417C48.6116 36.4805 48.233 36.6291 47.9153 36.8708C47.5977 37.1126 47.3535 37.4379 47.2103 37.8105C47.067 38.1831 47.0302 38.5882 47.104 38.9804C47.1779 39.3727 47.3594 39.7367 47.6283 40.0317C47.4173 39.8283 47.1651 39.6725 46.8888 39.5746C46.6125 39.4767 46.3185 39.4392 46.0264 39.4644C45.466 39.5188 44.9494 39.7911 44.5879 40.2228C44.2264 40.6544 44.0489 41.2108 44.0937 41.772C44.1123 42.0486 44.1852 42.3189 44.3082 42.5673C44.4313 42.8158 44.602 43.0375 44.8108 43.22C44.4587 43.0304 44.0588 42.948 43.6604 42.9829C43.1004 43.0383 42.5845 43.3109 42.2231 43.7423C41.8618 44.1737 41.684 44.7295 41.7277 45.2906C41.7442 45.4996 41.7906 45.7051 41.8655 45.901C41.6538 45.6949 41.4002 45.5369 41.1219 45.4378C40.8436 45.3386 40.5472 45.3007 40.2529 45.3265C39.8728 45.3648 39.5096 45.5033 39.2007 45.7281C38.8917 45.9529 38.6481 46.2557 38.4947 46.6056C38.3413 46.9555 38.2837 47.3399 38.3277 47.7194C38.3718 48.0989 38.516 48.4599 38.7455 48.7654C38.5328 48.547 38.2742 48.3786 37.9885 48.2724C37.7028 48.1662 37.397 48.1247 37.0933 48.1511C36.737 48.1855 36.3949 48.3086 36.0983 48.509C35.8016 48.7094 35.5598 48.9808 35.3948 49.2985C35.2298 49.6162 35.1469 49.9702 35.1535 50.3281C35.1602 50.6861 35.2563 51.0366 35.433 51.348C35.028 51.0572 34.5309 50.924 34.0348 50.9733C33.474 51.0267 32.9568 51.2988 32.5951 51.7307C32.2334 52.1626 32.0563 52.7195 32.1021 53.281C32.1257 53.6308 32.2368 53.969 32.4254 54.2646C32.6139 54.5601 32.8737 54.8035 33.181 54.9724C32.8568 54.9061 32.5216 54.9166 32.2023 55.0031C31.8829 55.0896 31.5883 55.2497 31.3419 55.4705C31.0955 55.6914 30.9043 55.9669 30.7836 56.2749C30.6629 56.583 30.6159 56.915 30.6466 57.2444C30.6767 57.675 30.8388 58.0858 31.1108 58.4208C31.3828 58.7559 31.7516 58.9989 32.1667 59.1168C31.8593 59.0966 31.5511 59.1436 31.2636 59.2544C30.9762 59.3653 30.7163 59.5374 30.502 59.7588C30.2877 59.9802 30.1242 60.2456 30.0228 60.5366C29.9214 60.8275 29.8846 61.137 29.9149 61.4437C29.9331 61.7197 30.006 61.9894 30.1293 62.2371C30.2527 62.4847 30.4241 62.7053 30.6335 62.8861C30.843 63.0669 31.0863 63.2042 31.3493 63.2901C31.6123 63.3759 31.8898 63.4086 32.1655 63.3862C32.7255 63.3308 33.2415 63.0582 33.6028 62.6268C33.9641 62.1954 34.142 61.6396 34.0983 61.0786C34.0693 60.6477 33.9077 60.2363 33.6355 59.901C33.3633 59.5658 32.9939 59.323 32.5781 59.2062C33.0611 59.2326 33.5388 59.095 33.9336 58.8155C34.3284 58.5361 34.617 58.1313 34.7526 57.667C34.8881 57.2027 34.8626 56.7062 34.6802 56.2583C34.4978 55.8103 34.1693 55.4372 33.748 55.1997C33.945 55.2427 34.1475 55.2561 34.3485 55.2392C34.7041 55.2032 35.0451 55.0794 35.341 54.8789C35.6368 54.6783 35.8781 54.4074 36.0431 54.0904C36.2082 53.7734 36.2919 53.4204 36.2866 53.063C36.2812 52.7057 36.1872 52.3553 36.0127 52.0433C36.4177 52.3341 36.9148 52.4673 37.4109 52.418C37.9709 52.3625 38.4869 52.0899 38.8482 51.6585C39.2095 51.2271 39.3874 50.6713 39.3437 50.1103C39.3138 49.6992 39.1647 49.3057 38.9145 48.9781C39.1274 49.1962 39.3859 49.3644 39.6716 49.4707C39.9573 49.5769 40.263 49.6185 40.5666 49.5924C41.1274 49.539 41.6447 49.2669 42.0064 48.835C42.3681 48.4032 42.5452 47.8462 42.4994 47.2847C42.4861 47.0741 42.44 46.8668 42.3626 46.6704C42.5725 46.8789 42.8256 47.0387 43.1041 47.1386C43.3825 47.2385 43.6795 47.2761 43.9741 47.2487C44.5349 47.1953 45.0521 46.9233 45.4138 46.4914C45.7756 46.0595 45.9527 45.5026 45.9068 44.9411C45.8889 44.6643 45.8163 44.3938 45.6932 44.1453C45.5701 43.8968 45.399 43.6751 45.1897 43.4931C45.5418 43.6827 45.9417 43.7651 46.3401 43.7302C46.9005 43.6758 47.4171 43.4034 47.7786 42.9718C48.1401 42.5402 48.3176 41.9838 48.2729 41.4225C48.2388 40.944 48.0426 40.4913 47.7168 40.1391C47.9286 40.3426 48.1815 40.4985 48.4584 40.5965C48.7353 40.6945 49.0299 40.7324 49.3226 40.7075C49.8825 40.6521 50.3985 40.3795 50.7598 39.9481C51.1211 39.5167 51.299 38.9609 51.2553 38.3999C51.2341 38.0967 51.1481 37.8015 51.003 37.5345C50.8579 37.2674 50.6572 37.0346 50.4143 36.8518C50.6383 36.9112 50.871 36.9311 51.1019 36.9104C51.6623 36.856 52.1788 36.5836 52.5404 36.152C52.9019 35.7204 53.0794 35.164 53.0346 34.6027C53.0148 34.2892 52.925 33.984 52.7718 33.7097C52.6186 33.4353 52.4058 33.1989 52.1491 33.0176Z" fill="#FFE6BD"/>
</g>
<path d="M16.059 78.5354C15.9082 78.7068 15.7089 78.8285 15.4876 78.8842C15.2662 78.94 15.033 78.9273 14.819 78.8478C14.605 78.7682 14.4202 78.6256 14.2889 78.4388C14.1577 78.252 14.0862 78.0297 14.084 77.8014C14.0817 77.5731 14.1488 77.3495 14.2763 77.1602C14.4038 76.9708 14.5858 76.8246 14.7982 76.7408C15.0106 76.6571 15.2435 76.6398 15.4659 76.6912C15.6884 76.7426 15.89 76.8602 16.0441 77.0287C16.2454 77.2268 16.36 77.4966 16.3628 77.779C16.3656 78.0614 16.2564 78.3334 16.059 78.5354Z" fill="#A85000"/>
<path d="M16.0343 77.0343C15.9291 77.0091 15.8191 77.0116 15.7152 77.0415C15.6112 77.0714 15.5167 77.1277 15.4409 77.2049C15.3652 77.2821 15.3107 77.3777 15.2828 77.4822C15.2549 77.5867 15.2545 77.6967 15.2817 77.8014C15.3089 77.9061 15.3628 78.002 15.438 78.0797C15.5133 78.1575 15.6074 78.2144 15.7111 78.245C15.8149 78.2756 15.9249 78.2788 16.0302 78.2543C16.1356 78.2298 16.2329 78.1784 16.3125 78.1052C16.3608 77.9177 16.3606 77.7211 16.312 77.5338C16.2633 77.3464 16.1677 77.1746 16.0343 77.0343Z" fill="#A0510A"/>
<path d="M15.616 77.4078C15.3434 77.1126 15.199 76.7212 15.2148 76.3196C15.2306 75.918 15.4051 75.5391 15.7001 75.2662L19.4254 71.8147C19.7219 71.5429 20.1138 71.3994 20.5157 71.4154C20.9175 71.4313 21.2968 71.6054 21.5709 71.8998C21.8426 72.1963 21.9861 72.5882 21.9702 72.9901C21.9543 73.392 21.7801 73.7713 21.4858 74.0453L17.7576 77.4919C17.4619 77.7636 17.0707 77.9072 16.6695 77.8914C16.2682 77.8757 15.8895 77.7018 15.616 77.4078Z" fill="#A85000"/>
<path d="M19.4948 71.7747C19.491 72.2965 19.6892 72.7996 20.0479 73.1787C20.2502 73.4133 20.5068 73.595 20.7953 73.7081C21.0837 73.8211 21.3954 73.8621 21.7033 73.8274C21.9138 73.5263 22.0077 73.159 21.9678 72.7939C21.9278 72.4288 21.7567 72.0905 21.4861 71.8421C21.2156 71.5936 20.8641 71.4518 20.4968 71.443C20.1296 71.4342 19.7717 71.559 19.4896 71.7942L19.4948 71.7747Z" fill="#A0510A"/>
<path d="M16.0475 76.6569C16.0031 76.6088 15.9687 76.5524 15.9462 76.491C15.9236 76.4296 15.9135 76.3643 15.9162 76.2989C15.9189 76.2336 15.9346 76.1694 15.9621 76.1101C15.9897 76.0507 16.0288 75.9974 16.077 75.9532L19.6667 72.6328C19.7145 72.588 19.7708 72.5532 19.8322 72.5302C19.8935 72.5073 19.9589 72.4967 20.0244 72.4991C20.0898 72.5014 20.1542 72.5167 20.2138 72.5441C20.2733 72.5714 20.3269 72.6103 20.3714 72.6584C20.4162 72.7063 20.451 72.7625 20.474 72.8239C20.4969 72.8853 20.5075 72.9506 20.5051 73.0161C20.5028 73.0816 20.4875 73.1459 20.4601 73.2055C20.4328 73.2651 20.3939 73.3186 20.3458 73.3631L16.7512 76.6864C16.6536 76.775 16.525 76.8216 16.3933 76.816C16.2616 76.8105 16.1374 76.7534 16.0475 76.6569Z" fill="#D67116"/>
<path d="M22.9413 73.1126C22.3781 73.6524 21.3422 73.4878 20.6601 72.7525C19.9781 72.0172 19.9022 70.9881 20.4811 70.4525C21.0599 69.9169 22.0852 70.0744 22.7633 70.8087C23.4414 71.5429 23.523 72.582 22.9413 73.1126Z" fill="#A85000"/>
<path d="M22.8492 72.0037C22.6221 72.2107 22.1605 72.0745 21.8166 71.7019C21.4727 71.3293 21.3699 70.8538 21.5931 70.6457C21.8163 70.4376 22.2818 70.5749 22.6257 70.9475C22.9696 71.3201 23.0724 71.7956 22.8492 72.0037Z" fill="#D67116"/>
<path d="M22.1455 71.271C22.7009 70.495 22.9858 69.558 22.9563 68.6041L23.142 68.5827C23.1793 69.4471 22.9587 70.303 22.5083 71.0417C23.2821 70.6379 24.4469 70.3682 24.7958 70.4407L24.7477 70.6204C23.8677 70.6653 23.0136 70.9334 22.2659 71.3996L22.1455 71.271Z" fill="#773A08"/>
<path d="M45.4335 10.6984C45.4689 11.1285 45.6309 11.5385 45.8991 11.8765C46.1673 12.2146 46.5297 12.4656 46.9404 12.5979C47.3512 12.7301 47.792 12.7377 48.207 12.6196C48.6221 12.5015 48.9929 12.2631 49.2725 11.9344C49.5522 11.6058 49.7282 11.2016 49.7782 10.773C49.8283 10.3443 49.7503 9.91048 49.554 9.52619C49.3576 9.1419 49.0518 8.8244 48.6752 8.6138C48.2985 8.40319 47.8679 8.30892 47.4377 8.3429C46.8596 8.38963 46.3238 8.66402 45.9479 9.10573C45.5721 9.54744 45.3871 10.1203 45.4335 10.6984Z" fill="#B75F08"/>
<path d="M46.8548 9.34627C46.7773 9.54688 46.7633 9.7664 46.8145 9.97523C46.8657 10.1841 46.9798 10.3722 47.1412 10.5142C47.3027 10.6562 47.5038 10.7453 47.7175 10.7694C47.9312 10.7936 48.1471 10.7516 48.3362 10.6492C48.5252 10.5468 48.6784 10.3889 48.7749 10.1968C48.8714 10.0046 48.9067 9.78749 48.876 9.57467C48.8453 9.36185 48.7501 9.16356 48.6032 9.00654C48.4563 8.84953 48.2647 8.74134 48.0544 8.69657C47.8092 8.6252 47.5457 8.6534 47.3211 8.77502C47.0966 8.89665 46.929 9.1019 46.8548 9.34627Z" fill="#D67116"/>
<path d="M42.0193 8.13015C42.0549 8.56032 42.2173 8.97029 42.4858 9.30824C42.7543 9.64619 43.117 9.89696 43.528 10.0289C43.939 10.1608 44.3799 10.1679 44.7949 10.0494C45.21 9.93084 45.5806 9.69194 45.8599 9.36286C46.1392 9.03378 46.3147 8.62929 46.3643 8.20049C46.4138 7.7717 46.3351 7.33785 46.1382 6.95375C45.9412 6.56965 45.6349 6.25254 45.2578 6.04248C44.8807 5.83243 44.4498 5.73886 44.0196 5.7736C43.7332 5.79618 43.4541 5.87516 43.1984 6.00599C42.9426 6.13681 42.7153 6.3169 42.5294 6.53591C42.3435 6.75491 42.2027 7.00851 42.1152 7.28211C42.0276 7.55571 41.9951 7.84391 42.0193 8.13015Z" fill="#B75F08"/>
<path d="M43.442 6.7574C43.3646 6.95801 43.3506 7.17753 43.4018 7.38637C43.453 7.5952 43.5671 7.78331 43.7285 7.92532C43.89 8.06733 44.0911 8.15641 44.3048 8.18056C44.5184 8.2047 44.7344 8.16275 44.9234 8.06035C45.1125 7.95795 45.2657 7.80002 45.3622 7.60788C45.4587 7.41574 45.494 7.19863 45.4633 6.9858C45.4326 6.77298 45.3374 6.57469 45.1905 6.41768C45.0435 6.26066 44.852 6.15247 44.6417 6.1077C44.3965 6.03634 44.133 6.06453 43.9084 6.18615C43.6839 6.30778 43.5163 6.51303 43.442 6.7574Z" fill="#D67116"/>
<path d="M38.1025 6.46951C38.1371 6.89988 38.2986 7.31033 38.5664 7.64896C38.8343 7.9876 39.1965 8.23922 39.6074 8.37201C40.0182 8.50481 40.4592 8.51282 40.8746 8.39503C41.2899 8.27725 41.6611 8.03895 41.9411 7.71027C42.221 7.38158 42.3973 6.97728 42.4475 6.54845C42.4977 6.11962 42.4197 5.68552 42.2232 5.30104C42.0268 4.91655 41.7208 4.59894 41.3439 4.38835C40.9669 4.17776 40.536 4.08365 40.1056 4.11791C39.5285 4.16493 38.9935 4.43888 38.618 4.8797C38.2425 5.32051 38.0572 5.89223 38.1025 6.46951Z" fill="#B75F08"/>
<path d="M39.527 5.10564C39.4488 5.30608 39.4339 5.52572 39.4844 5.73488C39.535 5.94405 39.6485 6.13267 39.8096 6.27527C39.9708 6.41787 40.1718 6.50758 40.3856 6.53229C40.5993 6.55701 40.8155 6.51553 41.0049 6.41347C41.1944 6.3114 41.3479 6.15366 41.4449 5.96155C41.5418 5.76944 41.5774 5.55221 41.547 5.33919C41.5165 5.12618 41.4214 4.92763 41.2746 4.77038C41.1277 4.61313 40.9361 4.50474 40.7256 4.45984C40.4811 4.38753 40.2178 4.41484 39.9933 4.53581C39.7688 4.65678 39.6012 4.86161 39.527 5.10564Z" fill="#D67116"/>
<path d="M33.8325 5.5179C33.8671 5.94827 34.0285 6.35872 34.2964 6.69735C34.5643 7.03598 34.9265 7.2876 35.3373 7.4204C35.7482 7.5532 36.1891 7.56121 36.6045 7.44342C37.0199 7.32563 37.391 7.08734 37.671 6.75865C37.951 6.42997 38.1272 6.02566 38.1775 5.59683C38.2277 5.168 38.1496 4.73391 37.9532 4.34942C37.7568 3.96494 37.4507 3.64733 37.0738 3.43674C36.6969 3.22615 36.266 3.13203 35.8356 3.1663C35.5496 3.18906 35.2709 3.26796 35.0155 3.39849C34.76 3.52901 34.5328 3.7086 34.3467 3.927C34.1607 4.14539 34.0195 4.3983 33.9313 4.67127C33.8431 4.94425 33.8095 5.23194 33.8325 5.5179Z" fill="#B75F08"/>
<path d="M35.2474 4.14299C35.1691 4.34344 35.1542 4.56307 35.2048 4.77223C35.2553 4.9814 35.3688 5.17002 35.53 5.31262C35.6911 5.45522 35.8921 5.54493 36.1059 5.56965C36.3197 5.59436 36.5358 5.55289 36.7253 5.45082C36.9147 5.34876 37.0683 5.19102 37.1652 4.9989C37.2621 4.80679 37.2978 4.58956 37.2673 4.37655C37.2369 4.16353 37.1418 3.96499 36.9949 3.80773C36.848 3.65048 36.6564 3.54209 36.446 3.4972C36.2014 3.42489 35.9381 3.45219 35.7136 3.57317C35.4891 3.69414 35.3215 3.89896 35.2474 4.14299Z" fill="#D67116"/>
<path d="M29.5561 6.27664C29.5908 6.70701 29.7522 7.11746 30.0201 7.45609C30.2879 7.79473 30.6501 8.04635 31.061 8.17914C31.4718 8.31194 31.9128 8.31994 32.3282 8.20216C32.7436 8.08437 33.1147 7.84608 33.3947 7.5174C33.6746 7.18871 33.8509 6.7844 33.9011 6.35557C33.9513 5.92674 33.8733 5.49265 33.6769 5.10817C33.4804 4.72368 33.1744 4.40607 32.7975 4.19548C32.4205 3.98489 31.9897 3.89078 31.5593 3.92504C30.9821 3.97206 30.4471 4.246 30.0717 4.68682C29.6962 5.12764 29.5108 5.69936 29.5561 6.27664Z" fill="#B75F08"/>
<path d="M30.9796 4.91671C30.9022 5.11731 30.8882 5.33683 30.9394 5.54567C30.9906 5.75451 31.1047 5.94261 31.2661 6.08462C31.4276 6.22663 31.6287 6.31571 31.8424 6.33986C32.056 6.364 32.272 6.32204 32.461 6.21964C32.6501 6.11724 32.8032 5.95932 32.8998 5.76718C32.9963 5.57504 33.0316 5.35793 33.0009 5.1451C32.9702 4.93228 32.875 4.73399 32.728 4.57698C32.5811 4.41996 32.3896 4.31177 32.1793 4.267C31.9341 4.19564 31.6706 4.22383 31.446 4.34546C31.2214 4.46708 31.0539 4.67234 30.9796 4.91671Z" fill="#D67116"/>
<path d="M25.6251 8.2624C25.6597 8.69277 25.8212 9.10322 26.089 9.44185C26.3569 9.78049 26.7191 10.0321 27.1299 10.1649C27.5408 10.2977 27.9817 10.3057 28.3971 10.1879C28.8125 10.0701 29.1836 9.83184 29.4636 9.50316C29.7436 9.17448 29.9198 8.77016 29.9701 8.34133C30.0203 7.9125 29.9422 7.47841 29.7458 7.09393C29.5494 6.70944 29.2433 6.39183 28.8664 6.18124C28.4895 5.97065 28.0586 5.87654 27.6282 5.91081C27.3422 5.93357 27.0635 6.01247 26.8081 6.14299C26.5526 6.27352 26.3254 6.45311 26.1393 6.6715C25.9533 6.88989 25.8121 7.1428 25.7239 7.41578C25.6357 7.68875 25.6021 7.97644 25.6251 8.2624Z" fill="#B75F08"/>
<path d="M27.0496 6.89849C26.9713 7.09893 26.9565 7.31857 27.007 7.52773C27.0576 7.73689 27.1711 7.92551 27.3322 8.06811C27.4934 8.21071 27.6944 8.30043 27.9081 8.32514C28.1219 8.34986 28.3381 8.30838 28.5275 8.20631C28.717 8.10425 28.8705 7.94651 28.9675 7.7544C29.0644 7.56229 29.1 7.34505 29.0696 7.13204C29.0391 6.91902 28.944 6.72048 28.7971 6.56323C28.6503 6.40597 28.4587 6.29758 28.2482 6.25269C28.0036 6.18038 27.7404 6.20769 27.5159 6.32866C27.2913 6.44963 27.1237 6.65446 27.0496 6.89849Z" fill="#D67116"/>
<path d="M23.1719 10.8409C23.2065 11.2712 23.3679 11.6817 23.6358 12.0203C23.9036 12.3589 24.2659 12.6106 24.6767 12.7433C25.0875 12.8761 25.5285 12.8842 25.9439 12.7664C26.3593 12.6486 26.7304 12.4103 27.0104 12.0816C27.2904 11.7529 27.4666 11.3486 27.5168 10.9198C27.5671 10.491 27.489 10.0569 27.2926 9.67237C27.0961 9.28789 26.7901 8.97028 26.4132 8.75969C26.0363 8.5491 25.6054 8.45499 25.175 8.48925C24.5978 8.53627 24.0629 8.81022 23.6874 9.25103C23.3119 9.69185 23.1265 10.2636 23.1719 10.8409Z" fill="#B75F08"/>
<path d="M24.6081 9.48003C24.5298 9.68047 24.5149 9.90011 24.5655 10.1093C24.616 10.3184 24.7295 10.5071 24.8907 10.6497C25.0518 10.7923 25.2529 10.882 25.4666 10.9067C25.6804 10.9314 25.8966 10.8899 26.086 10.7879C26.2754 10.6858 26.429 10.5281 26.5259 10.3359C26.6229 10.1438 26.6585 9.9266 26.628 9.71358C26.5976 9.50057 26.5025 9.30202 26.3556 9.14477C26.2087 8.98752 26.0171 8.87913 25.8067 8.83423C25.5621 8.76411 25.2999 8.79241 25.0759 8.91308C24.8519 9.03375 24.684 9.23722 24.6081 9.48003Z" fill="#D67116"/>
<path d="M21.5782 14.1017C21.6138 14.5318 21.7761 14.9418 22.0446 15.2797C22.3132 15.6177 22.6758 15.8685 23.0868 16.0004C23.4978 16.1323 23.9387 16.1394 24.3538 16.0209C24.7688 15.9024 25.1394 15.6634 25.4187 15.3344C25.698 15.0053 25.8736 14.6008 25.9231 14.172C25.9726 13.7432 25.894 13.3093 25.697 12.9252C25.5001 12.5411 25.1937 12.224 24.8166 12.014C24.4395 11.8039 24.0087 11.7104 23.5784 11.7451C23.2922 11.7682 23.0134 11.8475 22.7579 11.9785C22.5024 12.1095 22.2753 12.2896 22.0895 12.5085C21.9037 12.7274 21.7629 12.9808 21.6752 13.2542C21.5874 13.5275 21.5545 13.8155 21.5782 14.1017Z" fill="#B75F08"/>
<path d="M23.0026 12.7377C22.9263 12.9375 22.9129 13.1559 22.9644 13.3636C23.0159 13.5712 23.1297 13.758 23.2905 13.8991C23.4514 14.0401 23.6516 14.1284 23.8641 14.1523C24.0767 14.1761 24.2915 14.1343 24.4796 14.0324C24.6677 13.9306 24.82 13.7735 24.9162 13.5825C25.0124 13.3914 25.0478 13.1755 25.0176 12.9637C24.9874 12.752 24.8931 12.5545 24.7473 12.398C24.6016 12.2414 24.4114 12.1332 24.2023 12.088C23.9571 12.0155 23.6931 12.0432 23.4682 12.165C23.2434 12.2868 23.0759 12.4927 23.0026 12.7377Z" fill="#D67116"/>
<path d="M20.871 17.6628C20.9066 18.093 21.069 18.503 21.3375 18.8409C21.606 19.1789 21.9687 19.4296 22.3797 19.5615C22.7907 19.6935 23.2315 19.7006 23.6466 19.5821C24.0616 19.4635 24.4322 19.2246 24.7116 18.8955C24.9909 18.5664 25.1664 18.162 25.2159 17.7332C25.2655 17.3044 25.1868 16.8705 24.9899 16.4864C24.7929 16.1023 24.4866 15.7852 24.1095 15.5751C23.7324 15.3651 23.3015 15.2715 22.8712 15.3063C22.5851 15.3294 22.3063 15.4087 22.0508 15.5397C21.7953 15.6707 21.5681 15.8508 21.3823 16.0697C21.1966 16.2886 21.0558 16.5419 20.968 16.8153C20.8803 17.0887 20.8473 17.3767 20.871 17.6628Z" fill="#B75F08"/>
<path d="M22.2955 16.2989C22.2191 16.4987 22.2058 16.7171 22.2572 16.9247C22.3087 17.1323 22.4225 17.3192 22.5834 17.4602C22.7442 17.6012 22.9444 17.6896 23.157 17.7134C23.3695 17.7373 23.5843 17.6954 23.7724 17.5936C23.9605 17.4917 24.1129 17.3347 24.2091 17.1436C24.3053 16.9526 24.3406 16.7366 24.3104 16.5249C24.2802 16.3131 24.1859 16.1157 24.0402 15.9591C23.8944 15.8026 23.7042 15.6944 23.4951 15.6492C23.2499 15.5778 22.9864 15.606 22.7619 15.7276C22.5373 15.8493 22.3697 16.0545 22.2955 16.2989Z" fill="#D67116"/>
<path d="M21.6577 21.1471C21.6934 21.5772 21.8557 21.9872 22.1242 22.3251C22.3928 22.6631 22.7554 22.9139 23.1664 23.0458C23.5774 23.1777 24.0183 23.1848 24.4333 23.0663C24.8484 22.9478 25.219 22.7089 25.4983 22.3798C25.7776 22.0507 25.9532 21.6462 26.0027 21.2174C26.0522 20.7886 25.9736 20.3548 25.7766 19.9707C25.5797 19.5866 25.2733 19.2695 24.8962 19.0594C24.5191 18.8493 24.0882 18.7558 23.658 18.7905C23.3718 18.8136 23.093 18.8929 22.8375 19.0239C22.582 19.1549 22.3549 19.335 22.1691 19.5539C21.9833 19.7728 21.8425 20.0262 21.7548 20.2996C21.667 20.5729 21.634 20.8609 21.6577 21.1471Z" fill="#B75F08"/>
<path d="M23.0784 19.7822C23.001 19.9828 22.9869 20.2023 23.0382 20.4111C23.0894 20.62 23.2034 20.8081 23.3649 20.9501C23.5263 21.0921 23.7275 21.1812 23.9411 21.2053C24.1548 21.2295 24.3707 21.1875 24.5598 21.0851C24.7489 20.9827 24.902 20.8248 24.9985 20.6327C25.0951 20.4405 25.1304 20.2234 25.0997 20.0106C25.0689 19.7978 24.9737 19.5995 24.8268 19.4425C24.6799 19.2854 24.4884 19.1773 24.2781 19.1325C24.0328 19.0622 23.7699 19.0909 23.5456 19.2124C23.3213 19.3338 23.1535 19.5384 23.0784 19.7822Z" fill="#D67116"/>
<path d="M22.9631 24.7116C22.998 25.1421 23.1597 25.5525 23.4279 25.891C23.6961 26.2295 24.0586 26.4809 24.4697 26.6134C24.8807 26.7458 25.3218 26.7534 25.7372 26.6352C26.1526 26.5169 26.5235 26.2782 26.8032 25.9491C27.0828 25.62 27.2586 25.2153 27.3083 24.7863C27.358 24.3573 27.2793 23.9233 27.0822 23.539C26.8852 23.1547 26.5786 22.8374 26.2013 22.6274C25.8239 22.4174 25.3927 22.324 24.9623 22.359C24.3852 22.4059 23.8505 22.6802 23.4755 23.1213C23.1006 23.5625 22.9163 24.1346 22.9631 24.7116Z" fill="#B75F08"/>
<path d="M24.3918 23.3321C24.3143 23.5327 24.3003 23.7522 24.3515 23.9611C24.4027 24.1699 24.5168 24.358 24.6782 24.5C24.8397 24.642 25.0408 24.7311 25.2545 24.7553C25.4681 24.7794 25.6841 24.7374 25.8731 24.635C26.0622 24.5326 26.2154 24.3747 26.3119 24.1826C26.4084 23.9904 26.4437 23.7733 26.413 23.5605C26.3823 23.3477 26.2871 23.1494 26.1402 22.9924C25.9932 22.8354 25.8017 22.7272 25.5914 22.6824C25.3462 22.611 25.0827 22.6392 24.8581 22.7609C24.6336 22.8825 24.466 23.0877 24.3918 23.3321Z" fill="#D67116"/>
<path d="M24.8472 27.9123C24.8821 28.3428 25.0439 28.7532 25.3121 29.0917C25.5803 29.4302 25.9428 29.6816 26.3538 29.8141C26.7649 29.9465 27.206 29.9541 27.6214 29.8359C28.0367 29.7176 28.4077 29.4788 28.6873 29.1498C28.967 28.8207 29.1428 28.416 29.1924 27.987C29.2421 27.558 29.1634 27.1239 28.9664 26.7396C28.7693 26.3554 28.4628 26.0381 28.0854 25.8281C27.7081 25.6181 27.2769 25.5246 26.8465 25.5597C26.2694 25.6066 25.7346 25.8808 25.3597 26.322C24.9848 26.7632 24.8005 27.3352 24.8472 27.9123Z" fill="#B75F08"/>
<path d="M26.2679 26.5474C26.1896 26.7479 26.1747 26.9675 26.2253 27.1767C26.2758 27.3858 26.3893 27.5744 26.5505 27.717C26.7116 27.8596 26.9126 27.9494 27.1264 27.9741C27.3402 27.9988 27.5564 27.9573 27.7458 27.8552C27.9352 27.7532 28.0888 27.5954 28.1857 27.4033C28.2826 27.2112 28.3183 26.994 28.2878 26.781C28.2574 26.5679 28.1623 26.3694 28.0154 26.2122C27.8685 26.0549 27.6769 25.9465 27.4665 25.9016C27.2219 25.8315 26.9596 25.8598 26.7357 25.9805C26.5117 26.1011 26.3438 26.3046 26.2679 26.5474Z" fill="#D67116"/>
<path d="M26.8409 31.1423C26.8762 31.5723 27.0382 31.9823 27.3064 32.3204C27.5746 32.6585 27.937 32.9095 28.3478 33.0417C28.7586 33.174 29.1993 33.1815 29.6144 33.0635C30.0295 32.9454 30.4002 32.707 30.6799 32.3783C30.9595 32.0496 31.1355 31.6454 31.1856 31.2168C31.2357 30.7882 31.1576 30.3543 30.9613 29.97C30.765 29.5857 30.4592 29.2682 30.0825 29.0576C29.7058 28.847 29.2752 28.7528 28.845 28.7868C28.267 28.8335 27.7311 29.1079 27.3553 29.5496C26.9795 29.9913 26.7944 30.5642 26.8409 31.1423Z" fill="#B75F08"/>
<path d="M28.2654 29.7784C28.188 29.979 28.1739 30.1985 28.2252 30.4074C28.2764 30.6162 28.3904 30.8043 28.5519 30.9463C28.7133 31.0883 28.9145 31.1774 29.1281 31.2015C29.3418 31.2257 29.5577 31.1837 29.7468 31.0813C29.9359 30.9789 30.089 30.821 30.1856 30.6289C30.2821 30.4367 30.3174 30.2196 30.2867 30.0068C30.256 29.794 30.1607 29.5957 30.0138 29.4387C29.8669 29.2817 29.6754 29.1735 29.4651 29.1287C29.2198 29.0573 28.9564 29.0855 28.7318 29.2072C28.5072 29.3288 28.3396 29.534 28.2654 29.7784Z" fill="#D67116"/>
<path d="M28.5831 34.3258C28.6178 34.7571 28.7796 35.1684 29.048 35.5078C29.3165 35.8471 29.6795 36.0992 30.0912 36.2322C30.503 36.3652 30.9449 36.3731 31.3611 36.2549C31.7774 36.1367 32.1492 35.8977 32.4296 35.5681C32.71 35.2386 32.8863 34.8333 32.9364 34.4035C32.9864 33.9737 32.9078 33.5388 32.7106 33.1536C32.5134 32.7685 32.2064 32.4505 31.8285 32.2399C31.4505 32.0292 31.0186 31.9354 30.5873 31.9703C30.0092 32.017 29.4734 32.2914 29.0975 32.7331C28.7217 33.1748 28.5367 33.7477 28.5831 34.3258Z" fill="#B75F08"/>
<path d="M30.0076 32.962C29.9302 33.1626 29.9161 33.3821 29.9674 33.591C30.0186 33.7998 30.1326 33.9879 30.2941 34.1299C30.4555 34.2719 30.6567 34.361 30.8703 34.3851C31.084 34.4093 31.2999 34.3673 31.489 34.2649C31.6781 34.1625 31.8312 34.0046 31.9277 33.8125C32.0243 33.6203 32.0596 33.4032 32.0289 33.1904C31.9982 32.9776 31.9029 32.7793 31.756 32.6223C31.6091 32.4652 31.4176 32.3571 31.2073 32.3123C30.962 32.242 30.6991 32.2707 30.4748 32.3922C30.2505 32.5136 30.0827 32.7182 30.0076 32.962Z" fill="#D67116"/>
<path d="M29.9348 38.1706C29.9697 38.6011 30.1314 39.0115 30.3996 39.35C30.6678 39.6885 31.0303 39.9399 31.4414 40.0724C31.8524 40.2048 32.2935 40.2124 32.7089 40.0942C33.1242 39.9759 33.4952 39.7371 33.7749 39.4081C34.0545 39.079 34.2303 38.6743 34.28 38.2453C34.3296 37.8163 34.251 37.3822 34.0539 36.9979C33.8569 36.6137 33.5503 36.2964 33.1729 36.0864C32.7956 35.8764 32.3644 35.7829 31.934 35.818C31.3569 35.8649 30.8221 36.1391 30.4472 36.5803C30.0723 37.0215 29.888 37.5935 29.9348 38.1706Z" fill="#B75F08"/>
<path d="M31.3593 36.8068C31.281 37.0073 31.2662 37.2269 31.3167 37.4361C31.3673 37.6452 31.4808 37.8338 31.6419 37.9764C31.8031 38.119 32.0041 38.2088 32.2178 38.2335C32.4316 38.2582 32.6478 38.2167 32.8372 38.1146C33.0267 38.0126 33.1802 37.8548 33.2771 37.6627C33.3741 37.4706 33.4097 37.2534 33.3793 37.0404C33.3488 36.8273 33.2537 36.6288 33.1068 36.4716C32.96 36.3143 32.7684 36.2059 32.5579 36.161C32.3133 36.0898 32.0506 36.1176 31.8263 36.2384C31.6021 36.3593 31.4343 36.5634 31.3593 36.8068Z" fill="#D67116"/>
<path d="M30.5374 42.1079C30.5727 42.538 30.7347 42.9479 31.003 43.286C31.2712 43.6241 31.6335 43.8751 32.0443 44.0073C32.4551 44.1396 32.8958 44.1472 33.3109 44.0291C33.726 43.911 34.0968 43.6726 34.3764 43.3439C34.656 43.0152 34.832 42.6111 34.8821 42.1824C34.9322 41.7538 34.8542 41.32 34.6578 40.9357C34.4615 40.5514 34.1557 40.2339 33.779 40.0233C33.4024 39.8127 32.9718 39.7184 32.5415 39.7524C32.2551 39.775 31.976 39.8539 31.7201 39.9846C31.4643 40.1154 31.2367 40.2953 31.0505 40.5141C30.8643 40.7329 30.7232 40.9864 30.6351 41.2599C30.5471 41.5333 30.5139 41.8215 30.5374 42.1079Z" fill="#B75F08"/>
<path d="M31.9619 40.7441C31.8855 40.9439 31.8722 41.1623 31.9236 41.3699C31.9751 41.5775 32.0889 41.7644 32.2498 41.9054C32.4106 42.0464 32.6108 42.1348 32.8234 42.1586C33.0359 42.1825 33.2507 42.1406 33.4388 42.0388C33.6269 41.9369 33.7793 41.7799 33.8755 41.5888C33.9717 41.3978 34.007 41.1818 33.9768 40.9701C33.9466 40.7583 33.8523 40.5609 33.7065 40.4043C33.5608 40.2478 33.3706 40.1396 33.1615 40.0944C32.9163 40.0219 32.6523 40.0496 32.4275 40.1714C32.2026 40.2931 32.0352 40.4991 31.9619 40.7441Z" fill="#D67116"/>
<path d="M29.7367 46.0961C29.7713 46.5264 29.9328 46.9369 30.2006 47.2755C30.4685 47.6141 30.8307 47.8658 31.2415 47.9986C31.6524 48.1314 32.0934 48.1394 32.5087 48.0216C32.9241 47.9038 33.2953 47.6655 33.5752 47.3368C33.8552 47.0081 34.0314 46.6038 34.0817 46.175C34.1319 45.7462 34.0539 45.3121 33.8574 44.9276C33.661 44.5431 33.355 44.2255 32.978 44.0149C32.6011 43.8043 32.1702 43.7102 31.7398 43.7445C31.1631 43.7925 30.6288 44.0667 30.2535 44.5073C29.8782 44.9479 29.6924 45.519 29.7367 46.0961Z" fill="#B75F08"/>
<path d="M31.1612 44.7322C31.0829 44.9327 31.0681 45.1523 31.1186 45.3615C31.1691 45.5706 31.2826 45.7593 31.4438 45.9019C31.6049 46.0445 31.806 46.1342 32.0197 46.1589C32.2335 46.1836 32.4497 46.1421 32.6391 46.0401C32.8285 45.938 32.9821 45.7803 33.079 45.5881C33.176 45.396 33.2116 45.1788 33.1811 44.9658C33.1507 44.7528 33.0556 44.5542 32.9087 44.397C32.7618 44.2397 32.5702 44.1313 32.3598 44.0864C32.1152 44.0141 31.852 44.0414 31.6274 44.1624C31.4029 44.2834 31.2353 44.4882 31.1612 44.7322Z" fill="#D67116"/>
<path d="M27.1974 49.4803C27.233 49.9105 27.3954 50.3204 27.6639 50.6584C27.9324 50.9964 28.2951 51.2471 28.7061 51.379C29.1171 51.511 29.558 51.5181 29.973 51.3996C30.3881 51.281 30.7587 51.0421 31.038 50.713C31.3173 50.3839 31.4928 49.9795 31.5424 49.5507C31.5919 49.1219 31.5132 48.688 31.3163 48.3039C31.1193 47.9198 30.813 47.6027 30.4359 47.3927C30.0588 47.1826 29.6279 47.089 29.1977 47.1238C28.9115 47.1469 28.6327 47.2262 28.3772 47.3572C28.1217 47.4882 27.8946 47.6683 27.7088 47.8872C27.523 48.1061 27.3822 48.3594 27.2944 48.6328C27.2067 48.9062 27.1737 49.1942 27.1974 49.4803Z" fill="#A85000"/>
<path d="M28.6219 48.1164C28.5444 48.317 28.5304 48.5365 28.5816 48.7454C28.6328 48.9542 28.7469 49.1423 28.9083 49.2843C29.0698 49.4263 29.2709 49.5154 29.4846 49.5396C29.6982 49.5637 29.9142 49.5217 30.1032 49.4193C30.2923 49.3169 30.4455 49.159 30.542 48.9669C30.6385 48.7748 30.6738 48.5576 30.6431 48.3448C30.6124 48.132 30.5172 47.9337 30.3703 47.7767C30.2233 47.6197 30.0318 47.5115 29.8215 47.4667C29.5763 47.3953 29.3128 47.4235 29.0882 47.5452C28.8637 47.6668 28.6961 47.872 28.6219 48.1164Z" fill="#D67116"/>
<path d="M24.1871 52.6378C24.2217 53.0682 24.3832 53.4787 24.651 53.8173C24.9189 54.1559 25.2811 54.4076 25.692 54.5403C26.1028 54.6731 26.5438 54.6812 26.9592 54.5634C27.3745 54.4456 27.7457 54.2073 28.0256 53.8786C28.3056 53.5499 28.4819 53.1456 28.5321 52.7168C28.5823 52.288 28.5043 51.8539 28.3078 51.4694C28.1114 51.0849 27.8054 50.7673 27.4285 50.5567C27.0515 50.3461 26.6206 50.252 26.1902 50.2862C25.6131 50.3333 25.0781 50.6072 24.7026 51.048C24.3271 51.4888 24.1418 52.0606 24.1871 52.6378Z" fill="#A85000"/>
<path d="M25.6116 51.274C25.5334 51.4744 25.5185 51.694 25.569 51.9032C25.6196 52.1124 25.7331 52.301 25.8942 52.4436C26.0554 52.5862 26.2564 52.6759 26.4702 52.7006C26.6839 52.7253 26.9001 52.6839 27.0895 52.5818C27.279 52.4797 27.4325 52.322 27.5295 52.1299C27.6264 51.9378 27.662 51.7205 27.6316 51.5075C27.6011 51.2945 27.506 51.096 27.3592 50.9387C27.2123 50.7815 27.0207 50.6731 26.8102 50.6282C26.5657 50.557 26.3029 50.5848 26.0787 50.7056C25.8544 50.8264 25.6867 51.0306 25.6116 51.274Z" fill="#D67116"/>
<path d="M21.6732 56.146C21.7078 56.5764 21.8693 56.9868 22.1371 57.3255C22.405 57.6641 22.7672 57.9157 23.178 58.0485C23.5889 58.1813 24.0299 58.1893 24.4452 58.0715C24.8606 57.9538 25.2318 57.7155 25.5117 57.3868C25.7917 57.0581 25.9679 56.6538 26.0182 56.225C26.0684 55.7961 25.9904 55.362 25.7939 54.9776C25.5975 54.5931 25.2915 54.2755 24.9145 54.0649C24.5376 53.8543 24.1067 53.7602 23.6763 53.7944C23.0992 53.8414 22.5642 54.1154 22.1887 54.5562C21.8132 54.997 21.6278 55.5687 21.6732 56.146Z" fill="#A85000"/>
<path d="M23.0977 54.7822C23.0194 54.9826 23.0046 55.2022 23.0551 55.4114C23.1056 55.6206 23.2192 55.8092 23.3803 55.9518C23.5415 56.0944 23.7425 56.1841 23.9562 56.2088C24.17 56.2335 24.3862 56.1921 24.5756 56.09C24.7651 55.9879 24.9186 55.8302 25.0155 55.6381C25.1125 55.446 25.1481 55.2287 25.1177 55.0157C25.0872 54.8027 24.9921 54.6041 24.8452 54.4469C24.6984 54.2896 24.5068 54.1812 24.2963 54.1364C24.0517 54.0651 23.789 54.093 23.5647 54.2138C23.3405 54.3346 23.1728 54.5387 23.0977 54.7822Z" fill="#D67116"/>
<path d="M19.6113 59.8885C19.6459 60.3188 19.8074 60.7293 20.0752 61.0679C20.3431 61.4065 20.7053 61.6582 21.1161 61.791C21.527 61.9238 21.968 61.9318 22.3833 61.814C22.7987 61.6962 23.1699 61.4579 23.4498 61.1292C23.7298 60.8005 23.9061 60.3962 23.9563 59.9674C24.0065 59.5386 23.9285 59.1045 23.732 58.72C23.5356 58.3355 23.2296 58.0179 22.8526 57.8073C22.4757 57.5967 22.0448 57.5026 21.6144 57.5369C21.0373 57.5839 20.5023 57.8578 20.1268 58.2986C19.7513 58.7395 19.566 59.3112 19.6113 59.8885Z" fill="#A85000"/>
<path d="M21.0369 58.5206C20.9587 58.721 20.9438 58.9406 20.9943 59.1498C21.0449 59.359 21.1584 59.5476 21.3195 59.6902C21.4807 59.8328 21.6817 59.9225 21.8954 59.9472C22.1092 59.9719 22.3254 59.9305 22.5148 59.8284C22.7043 59.7263 22.8578 59.5686 22.9548 59.3765C23.0517 59.1844 23.0873 58.9671 23.0569 58.7541C23.0264 58.5411 22.9313 58.3425 22.7844 58.1853C22.6376 58.028 22.446 57.9197 22.2355 57.8748C21.991 57.8046 21.7287 57.8329 21.5047 57.9536C21.2808 58.0743 21.1129 58.2777 21.0369 58.5206Z" fill="#D67116"/>
<path d="M18.9113 64.1255C18.9462 64.556 19.108 64.9664 19.3762 65.3049C19.6443 65.6434 20.0069 65.8948 20.4179 66.0272C20.829 66.1597 21.2701 66.1673 21.6854 66.049C22.1008 65.9308 22.4718 65.692 22.7514 65.3629C23.0311 65.0338 23.2068 64.6292 23.2565 64.2002C23.3062 63.7712 23.2275 63.3371 23.0305 62.9528C22.8334 62.5685 22.5268 62.2513 22.1495 62.0413C21.7721 61.8312 21.341 61.7378 20.9105 61.7729C20.6246 61.7956 20.346 61.8745 20.0906 62.0052C19.8353 62.1358 19.6082 62.3156 19.4225 62.5341C19.2368 62.7527 19.096 63.0058 19.0083 63.2789C18.9206 63.5519 18.8876 63.8397 18.9113 64.1255Z" fill="#A85000"/>
<path d="M20.3359 62.7615C20.2576 62.962 20.2427 63.1816 20.2933 63.3908C20.3438 63.5999 20.4573 63.7885 20.6185 63.9311C20.7796 64.0738 20.9806 64.1635 21.1944 64.1882C21.4082 64.2129 21.6243 64.1714 21.8138 64.0694C22.0032 63.9673 22.1568 63.8095 22.2537 63.6174C22.3506 63.4253 22.3863 63.2081 22.3558 62.9951C22.3254 62.7821 22.2303 62.5835 22.0834 62.4263C21.9365 62.269 21.7449 62.1606 21.5345 62.1157C21.4134 62.0794 21.2863 62.0672 21.1605 62.08C21.0347 62.0928 20.9126 62.1303 20.8013 62.1902C20.69 62.2502 20.5916 62.3315 20.5117 62.4296C20.4319 62.5276 20.3721 62.6404 20.3359 62.7615Z" fill="#D67116"/>
<path d="M20.1684 68.2295C20.2037 68.6596 20.3657 69.0696 20.6339 69.4077C20.9022 69.7457 21.2645 69.9968 21.6753 70.129C22.0861 70.2613 22.5268 70.2688 22.9419 70.1508C23.357 70.0327 23.7277 69.7942 24.0074 69.4656C24.287 69.1369 24.463 68.7327 24.5131 68.3041C24.5632 67.8755 24.4852 67.4416 24.2888 67.0573C24.0925 66.673 23.7867 66.3555 23.41 66.1449C23.0334 65.9343 22.6027 65.8401 22.1725 65.874C21.5945 65.9208 21.0586 66.1952 20.6828 66.6369C20.307 67.0786 20.1219 67.6514 20.1684 68.2295Z" fill="#A85000"/>
<path d="M21.6045 66.8688C21.5271 67.0694 21.5131 67.289 21.5643 67.4978C21.6155 67.7066 21.7295 67.8947 21.891 68.0368C22.0525 68.1788 22.2536 68.2679 22.4672 68.292C22.6809 68.3161 22.8968 68.2742 23.0859 68.1718C23.275 68.0694 23.4281 67.9115 23.5247 67.7193C23.6212 67.5272 23.6565 67.3101 23.6258 67.0972C23.5951 66.8844 23.4998 66.6861 23.3529 66.5291C23.206 66.3721 23.0145 66.2639 22.8042 66.2191C22.559 66.1489 22.296 66.1776 22.0717 66.299C21.8474 66.4205 21.6797 66.6251 21.6045 66.8688Z" fill="#D67116"/>
<path d="M23.5868 70.8911C23.6214 71.3215 23.7829 71.7319 24.0507 72.0706C24.3186 72.4092 24.6808 72.6608 25.0916 72.7936C25.5025 72.9264 25.9435 72.9344 26.3588 72.8166C26.7742 72.6988 27.1454 72.4605 27.4253 72.1319C27.7053 71.8032 27.8815 71.3989 27.9318 70.97C27.982 70.5412 27.904 70.1071 27.7075 69.7226C27.5111 69.3381 27.2051 69.0205 26.8281 68.8099C26.4512 68.5994 26.0203 68.5052 25.5899 68.5395C25.0132 68.5875 24.4789 68.8618 24.1036 69.3024C23.7283 69.7429 23.5425 70.3141 23.5868 70.8911Z" fill="#A85000"/>
<path d="M25.0113 69.5273C24.933 69.7277 24.9182 69.9474 24.9687 70.1565C25.0192 70.3657 25.1327 70.5543 25.2939 70.6969C25.455 70.8395 25.6561 70.9292 25.8698 70.9539C26.0836 70.9786 26.2998 70.9372 26.4892 70.8351C26.6786 70.733 26.8322 70.5753 26.9291 70.3832C27.0261 70.1911 27.0617 69.9738 27.0312 69.7608C27.0008 69.5478 26.9057 69.3493 26.7588 69.192C26.6119 69.0348 26.4203 68.9264 26.2099 68.8815C25.9653 68.8092 25.7021 68.8365 25.4775 68.9574C25.253 69.0784 25.0854 69.2832 25.0113 69.5273Z" fill="#D67116"/>
<path d="M27.5794 69.2694C27.6147 69.6995 27.7767 70.1094 28.0449 70.4475C28.3132 70.7856 28.6755 71.0366 29.0863 71.1689C29.4971 71.3011 29.9378 71.3087 30.3529 71.1906C30.768 71.0725 31.1387 70.8341 31.4184 70.5054C31.698 70.1767 31.874 69.7726 31.9241 69.3439C31.9742 68.9153 31.8961 68.4814 31.6998 68.0972C31.5035 67.7129 31.1977 67.3954 30.821 67.1848C30.4444 66.9742 30.0137 66.8799 29.5835 66.9139C29.2971 66.9365 29.018 67.0154 28.7621 67.1461C28.5062 67.2769 28.2787 67.4568 28.0925 67.6756C27.9063 67.8944 27.7652 68.1479 27.6771 68.4214C27.5891 68.6948 27.5558 68.983 27.5794 69.2694Z" fill="#A85000"/>
<path d="M29.004 67.9056C28.9276 68.1054 28.9143 68.3238 28.9657 68.5314C29.0172 68.739 29.131 68.9259 29.2919 69.0669C29.4527 69.2079 29.6529 69.2963 29.8655 69.3201C30.0781 69.344 30.2928 69.3021 30.4809 69.2003C30.669 69.0984 30.8214 68.9414 30.9176 68.7503C31.0138 68.5593 31.0491 68.3433 31.0189 68.1316C30.9887 67.9198 30.8944 67.7224 30.7487 67.5658C30.6029 67.4093 30.4127 67.3011 30.2036 67.2559C29.9584 67.1834 29.6944 67.2111 29.4696 67.3329C29.2447 67.4546 29.0773 67.6606 29.004 67.9056Z" fill="#D67116"/>
<path d="M28.2594 64.9977C28.294 65.429 28.4558 65.8403 28.7243 66.1796C28.9927 66.519 29.3558 66.7711 29.7675 66.9041C30.1793 67.0371 30.6212 67.045 31.0374 66.9268C31.4536 66.8086 31.8255 66.5696 32.1058 66.24C32.3862 65.9105 32.5626 65.5052 32.6126 65.0754C32.6626 64.6456 32.5841 64.2106 32.3869 63.8255C32.1897 63.4404 31.8827 63.1224 31.5047 62.9118C31.1268 62.7011 30.6948 62.6073 30.2636 62.6422C29.6855 62.6889 29.1496 62.9633 28.7738 63.405C28.398 63.8467 28.213 64.4196 28.2594 64.9977Z" fill="#A85000"/>
<path d="M29.6839 63.6339C29.6064 63.8345 29.5924 64.054 29.6436 64.2628C29.6948 64.4717 29.8089 64.6598 29.9703 64.8018C30.1318 64.9438 30.3329 65.0329 30.5466 65.057C30.7603 65.0812 30.9762 65.0392 31.1653 64.9368C31.3543 64.8344 31.5075 64.6765 31.604 64.4844C31.7005 64.2922 31.7358 64.0751 31.7051 63.8623C31.6744 63.6494 31.5792 63.4512 31.4323 63.2941C31.2854 63.1371 31.0938 63.0289 30.8835 62.9842C30.6383 62.9128 30.3748 62.941 30.1503 63.0626C29.9257 63.1842 29.7581 63.3895 29.6839 63.6339Z" fill="#D67116"/>
<path d="M29.3948 60.7601C29.4294 61.1914 29.5912 61.6028 29.8597 61.9421C30.1281 62.2814 30.4911 62.5335 30.9029 62.6665C31.3146 62.7995 31.7566 62.8074 32.1728 62.6892C32.589 62.571 32.9608 62.332 33.2412 62.0025C33.5216 61.6729 33.698 61.2676 33.748 60.8379C33.798 60.4081 33.7195 59.9731 33.5222 59.588C33.325 59.2028 33.018 58.8848 32.6401 58.6742C32.2621 58.4636 31.8302 58.3698 31.3989 58.4046C30.8209 58.4514 30.285 58.7257 29.9092 59.1674C29.5334 59.6092 29.3483 60.182 29.3948 60.7601Z" fill="#A85000"/>
<path d="M30.8151 59.4118C30.7377 59.6124 30.7236 59.832 30.7748 60.0408C30.8261 60.2496 30.9401 60.4377 31.1016 60.5797C31.263 60.7218 31.4641 60.8108 31.6778 60.835C31.8915 60.8591 32.1074 60.8172 32.2965 60.7148C32.4856 60.6124 32.6387 60.4544 32.7352 60.2623C32.8318 60.0702 32.8671 59.853 32.8363 59.6402C32.8056 59.4274 32.7104 59.2291 32.5635 59.0721C32.4166 58.9151 32.2251 58.8069 32.0148 58.7621C31.7695 58.6908 31.5061 58.719 31.2815 58.8406C31.0569 58.9622 30.8893 59.1675 30.8151 59.4118Z" fill="#D67116"/>
<path d="M30.1277 56.4942C30.1631 56.9243 30.3251 57.3342 30.5933 57.6723C30.8615 58.0104 31.2239 58.2614 31.6347 58.3937C32.0454 58.5259 32.4862 58.5335 32.9013 58.4154C33.3163 58.2973 33.6871 58.0589 33.9667 57.7302C34.2464 57.4015 34.4224 56.9974 34.4725 56.5687C34.5225 56.1401 34.4445 55.7063 34.2482 55.322C34.0518 54.9377 33.746 54.6202 33.3694 54.4096C32.9927 54.199 32.5621 54.1047 32.1319 54.1387C31.5538 54.1854 31.018 54.4598 30.6421 54.9015C30.2663 55.3432 30.0813 55.9161 30.1277 56.4942Z" fill="#A85000"/>
<path d="M31.5522 55.1303C31.4747 55.3309 31.4607 55.5504 31.5119 55.7593C31.5631 55.9681 31.6772 56.1562 31.8386 56.2982C32.0001 56.4402 32.2012 56.5293 32.4149 56.5535C32.6285 56.5776 32.8445 56.5357 33.0336 56.4333C33.2226 56.3309 33.3758 56.1729 33.4723 55.9808C33.5688 55.7887 33.6041 55.5715 33.5734 55.3587C33.5427 55.1459 33.4475 54.9476 33.3006 54.7906C33.1537 54.6336 32.9621 54.5254 32.7518 54.4806C32.5066 54.4104 32.2436 54.439 32.0193 54.5605C31.795 54.682 31.6273 54.8866 31.5522 55.1303Z" fill="#D67116"/>
<path d="M31.6249 52.4373C31.6595 52.8677 31.8209 53.2781 32.0888 53.6167C32.3566 53.9554 32.7189 54.207 33.1297 54.3398C33.5405 54.4726 33.9815 54.4806 34.3969 54.3628C34.8123 54.245 35.1834 54.0067 35.4634 53.678C35.7434 53.3494 35.9196 52.9451 35.9698 52.5162C36.0201 52.0874 35.942 51.6533 35.7456 51.2688C35.5491 50.8843 35.2431 50.5667 34.8662 50.3561C34.4893 50.1455 34.0584 50.0514 33.628 50.0857C33.0508 50.1327 32.5159 50.4067 32.1404 50.8475C31.7649 51.2883 31.5795 51.86 31.6249 52.4373Z" fill="#A85000"/>
<path d="M33.0484 51.0773C32.9709 51.2779 32.9569 51.4975 33.0081 51.7063C33.0593 51.9151 33.1734 52.1033 33.3348 52.2453C33.4963 52.3873 33.6974 52.4764 33.9111 52.5005C34.1248 52.5246 34.3407 52.4827 34.5298 52.3803C34.7188 52.2779 34.872 52.12 34.9685 51.9278C35.065 51.7357 35.1003 51.5186 35.0696 51.3057C35.0389 51.0929 34.9437 50.8946 34.7968 50.7376C34.6499 50.5806 34.4583 50.4724 34.248 50.4276C34.0028 50.3563 33.7393 50.3845 33.5148 50.5061C33.2902 50.6277 33.1226 50.833 33.0484 51.0773Z" fill="#D67116"/>
<path d="M34.7929 49.5816C34.8285 50.0118 34.9908 50.4218 35.2594 50.7597C35.5279 51.0977 35.8906 51.3484 36.3016 51.4804C36.7125 51.6123 37.1534 51.6194 37.5685 51.5009C37.9835 51.3823 38.3541 51.1434 38.6334 50.8143C38.9128 50.4853 39.0883 50.0808 39.1378 49.652C39.1874 49.2232 39.1087 48.7893 38.9117 48.4052C38.7148 48.0211 38.4084 47.704 38.0313 47.494C37.6543 47.2839 37.2234 47.1903 36.7931 47.2251C36.5069 47.2482 36.2281 47.3275 35.9726 47.4585C35.7172 47.5895 35.49 47.7696 35.3042 47.9885C35.1184 48.2074 34.9776 48.4608 34.8899 48.7341C34.8021 49.0075 34.7692 49.2955 34.7929 49.5816Z" fill="#B75F08"/>
<path d="M36.2174 48.2177C36.14 48.4183 36.126 48.6379 36.1772 48.8467C36.2284 49.0555 36.3424 49.2436 36.5039 49.3856C36.6654 49.5277 36.8665 49.6167 37.0802 49.6409C37.2938 49.665 37.5098 49.6231 37.6988 49.5207C37.8879 49.4183 38.041 49.2603 38.1376 49.0682C38.2341 48.8761 38.2694 48.6589 38.2387 48.4461C38.208 48.2333 38.1128 48.035 37.9658 47.878C37.8189 47.721 37.6274 47.6128 37.4171 47.568C37.1719 47.4978 36.9089 47.5264 36.6846 47.6479C36.4603 47.7694 36.2926 47.974 36.2174 48.2177Z" fill="#D67116"/>
<path d="M38.075 46.7061C38.1106 47.1363 38.2729 47.5463 38.5415 47.8842C38.81 48.2222 39.1727 48.473 39.5837 48.6049C39.9947 48.7368 40.4355 48.7439 40.8506 48.6254C41.2656 48.5068 41.6362 48.2679 41.9155 47.9389C42.1949 47.6098 42.3704 47.2053 42.4199 46.7765C42.4695 46.3477 42.3908 45.9138 42.1938 45.5297C41.9969 45.1456 41.6905 44.8285 41.3134 44.6185C40.9364 44.4084 40.5055 44.3149 40.0752 44.3496C39.789 44.3727 39.5102 44.452 39.2547 44.583C38.9993 44.714 38.7721 44.8941 38.5863 45.113C38.4005 45.3319 38.2597 45.5853 38.172 45.8586C38.0842 46.132 38.0513 46.42 38.075 46.7061Z" fill="#B75F08"/>
<path d="M39.4916 45.3402C39.4142 45.5408 39.4001 45.7603 39.4514 45.9691C39.5026 46.178 39.6166 46.3661 39.7781 46.5081C39.9395 46.6501 40.1407 46.7392 40.3543 46.7633C40.568 46.7875 40.7839 46.7455 40.973 46.6431C41.1621 46.5407 41.3152 46.3828 41.4117 46.1906C41.5083 45.9985 41.5436 45.7814 41.5129 45.5686C41.4822 45.3557 41.3869 45.1574 41.24 45.0004C41.0931 44.8434 40.9016 44.7352 40.6913 44.6905C40.4461 44.6202 40.1831 44.6489 39.9588 44.7703C39.7345 44.8918 39.5667 45.0964 39.4916 45.3402Z" fill="#D67116"/>
<path d="M41.6067 44.3205C41.6424 44.7507 41.8047 45.1606 42.0732 45.4986C42.3417 45.8365 42.7044 46.0873 43.1154 46.2192C43.5264 46.3511 43.9673 46.3583 44.3823 46.2397C44.7974 46.1212 45.168 45.8823 45.4473 45.5532C45.7266 45.2241 45.9021 44.8196 45.9517 44.3908C46.0012 43.962 45.9225 43.5282 45.7256 43.1441C45.5287 42.76 45.2223 42.4429 44.8452 42.2328C44.4681 42.0228 44.0372 41.9292 43.607 41.9639C43.0294 42.0116 42.4944 42.2866 42.1194 42.7284C41.7443 43.1702 41.56 43.7428 41.6067 44.3205Z" fill="#B75F08"/>
<path d="M43.0313 42.9566C42.9539 43.1572 42.9398 43.3767 42.991 43.5856C43.0423 43.7944 43.1563 43.9825 43.3177 44.1245C43.4792 44.2665 43.6803 44.3556 43.894 44.3798C44.1077 44.4039 44.3236 44.362 44.5127 44.2596C44.7018 44.1572 44.8549 43.9992 44.9514 43.8071C45.0479 43.615 45.0832 43.3978 45.0525 43.185C45.0218 42.9722 44.9266 42.7739 44.7797 42.6169C44.6328 42.4599 44.4412 42.3517 44.2309 42.3069C43.9857 42.2356 43.7222 42.2637 43.4977 42.3854C43.2731 42.507 43.1055 42.7123 43.0313 42.9566Z" fill="#D67116"/>
<path d="M44.0504 40.7307C44.085 41.161 44.2464 41.5715 44.5143 41.9101C44.7821 42.2488 45.1444 42.5004 45.5552 42.6332C45.966 42.766 46.407 42.774 46.8224 42.6562C47.2378 42.5384 47.6089 42.3001 47.8889 41.9714C48.1689 41.6427 48.3451 41.2384 48.3953 40.8096C48.4456 40.3808 48.3675 39.9467 48.1711 39.5622C47.9747 39.1777 47.6686 38.8601 47.2917 38.6495C46.9148 38.4389 46.4839 38.3448 46.0535 38.3791C45.7675 38.4018 45.4888 38.4807 45.2334 38.6113C44.9779 38.7418 44.7507 38.9214 44.5646 39.1398C44.3786 39.3582 44.2374 39.6111 44.1492 39.884C44.061 40.157 44.0274 40.4447 44.0504 40.7307Z" fill="#B75F08"/>
<path d="M45.4827 39.3688C45.4044 39.5693 45.3896 39.7889 45.4401 39.9981C45.4907 40.2072 45.6042 40.3958 45.7653 40.5384C45.9265 40.6811 46.1275 40.7708 46.3412 40.7955C46.555 40.8202 46.7712 40.7787 46.9606 40.6767C47.1501 40.5746 47.3036 40.4168 47.4006 40.2247C47.4975 40.0326 47.5331 39.8154 47.5027 39.6024C47.4722 39.3894 47.3771 39.1908 47.2302 39.0336C47.0834 38.8763 46.8918 38.7679 46.6813 38.723C46.4367 38.6507 46.1735 38.678 45.949 38.799C45.7244 38.92 45.5568 39.1248 45.4827 39.3688Z" fill="#D67116"/>
<path d="M47.1408 37.6489C47.1764 38.0791 47.3387 38.4891 47.6073 38.827C47.8758 39.165 48.2385 39.4158 48.6494 39.5477C49.0604 39.6796 49.5013 39.6867 49.9164 39.5682C50.3314 39.4496 50.702 39.2107 50.9813 38.8817C51.2607 38.5526 51.4362 38.1481 51.4857 37.7193C51.5352 37.2905 51.4566 36.8566 51.2596 36.4725C51.0627 36.0884 50.7563 35.7713 50.3792 35.5613C50.0022 35.3512 49.5713 35.2577 49.141 35.2924C48.8547 35.315 48.5756 35.394 48.3198 35.5248C48.0641 35.6556 47.8367 35.8357 47.6508 36.0547C47.4649 36.2737 47.3242 36.5273 47.2366 36.8009C47.1491 37.0745 47.1165 37.3627 47.1408 37.6489Z" fill="#B75F08"/>
<path d="M48.5614 36.284C48.484 36.4846 48.47 36.7041 48.5212 36.913C48.5724 37.1218 48.6864 37.3099 48.8479 37.4519C49.0094 37.5939 49.2105 37.683 49.4242 37.7072C49.6378 37.7313 49.8537 37.6893 50.0428 37.5869C50.2319 37.4845 50.385 37.3266 50.4816 37.1345C50.5781 36.9424 50.6134 36.7252 50.5827 36.5124C50.552 36.2996 50.4568 36.1013 50.3098 35.9443C50.1629 35.7873 49.9714 35.6791 49.7611 35.6343C49.5159 35.5629 49.2524 35.5911 49.0278 35.7128C48.8032 35.8344 48.6357 36.0396 48.5614 36.284Z" fill="#D67116"/>
<path d="M48.9587 33.7701C48.9937 34.2015 49.1557 34.6128 49.4245 34.9521C49.6933 35.2913 50.0566 35.5432 50.4686 35.6758C50.8806 35.8085 51.3226 35.8159 51.7388 35.6972C52.155 35.5786 52.5267 35.3391 52.8067 35.0092C53.0868 34.6792 53.2627 34.2736 53.3122 33.8437C53.3616 33.4137 53.2824 32.9787 53.0846 32.5938C52.8868 32.2089 52.5793 31.8913 52.2009 31.6812C51.8225 31.4711 51.3903 31.378 50.959 31.4136C50.3814 31.4613 49.8464 31.7363 49.4714 32.1781C49.0963 32.6199 48.912 33.1925 48.9587 33.7701Z" fill="#B75F08"/>
<path d="M50.3843 32.4024C50.3069 32.603 50.2928 32.8225 50.3441 33.0314C50.3953 33.2402 50.5093 33.4283 50.6708 33.5703C50.8322 33.7123 51.0334 33.8014 51.247 33.8256C51.4607 33.8497 51.6766 33.8078 51.8657 33.7054C52.0548 33.603 52.2079 33.445 52.3044 33.2529C52.401 33.0608 52.4363 32.8436 52.4056 32.6308C52.3749 32.418 52.2796 32.2197 52.1327 32.0627C51.9858 31.9057 51.7943 31.7975 51.584 31.7527C51.3387 31.6814 51.0753 31.7095 50.8507 31.8312C50.6261 31.9528 50.4585 32.1581 50.3843 32.4024Z" fill="#D67116"/>
<path d="M50.5522 29.8228C50.5878 30.253 50.7501 30.6629 51.0186 31.0009C51.2872 31.3388 51.6498 31.5896 52.0608 31.7215C52.4718 31.8534 52.9127 31.8606 53.3277 31.742C53.7428 31.6235 54.1134 31.3846 54.3927 31.0555C54.6721 30.7264 54.8476 30.3219 54.8971 29.8931C54.9466 29.4643 54.868 29.0305 54.671 28.6464C54.4741 28.2623 54.1677 27.9452 53.7906 27.7351C53.4135 27.5251 52.9826 27.4315 52.5524 27.4662C52.266 27.4888 51.9869 27.5678 51.7312 27.6986C51.4755 27.8294 51.2481 28.0095 51.0622 28.2285C50.8763 28.4475 50.7356 28.7011 50.648 28.9747C50.5605 29.2483 50.5279 29.5365 50.5522 29.8228Z" fill="#B75F08"/>
<path d="M51.9533 28.4526C51.8759 28.6532 51.8618 28.8727 51.913 29.0816C51.9643 29.2904 52.0783 29.4785 52.2397 29.6205C52.4012 29.7625 52.6023 29.8516 52.816 29.8757C53.0297 29.8999 53.2456 29.8579 53.4347 29.7555C53.6237 29.6531 53.7769 29.4952 53.8734 29.3031C53.97 29.1109 54.0052 28.8938 53.9745 28.681C53.9438 28.4682 53.8486 28.2699 53.7017 28.1129C53.5548 27.9559 53.3632 27.8477 53.1529 27.8029C52.9077 27.7315 52.6442 27.7597 52.4197 27.8813C52.1951 28.003 52.0275 28.2082 51.9533 28.4526Z" fill="#D67116"/>
<path d="M50.7854 25.469C50.82 25.8994 50.9815 26.3098 51.2493 26.6485C51.5172 26.9871 51.8794 27.2387 52.2902 27.3715C52.7011 27.5043 53.142 27.5123 53.5574 27.3945C53.9728 27.2768 54.3439 27.0385 54.6239 26.7098C54.9039 26.3811 55.0801 25.9768 55.1304 25.548C55.1806 25.1191 55.1025 24.685 54.9061 24.3005C54.7097 23.9161 54.4036 23.5985 54.0267 23.3879C53.6498 23.1773 53.2189 23.0832 52.7885 23.1174C52.2113 23.1644 51.6764 23.4384 51.3009 23.8792C50.9254 24.32 50.74 24.8917 50.7854 25.469Z" fill="#B75F08"/>
<path d="M52.2077 24.113C52.1294 24.3134 52.1146 24.533 52.1651 24.7422C52.2156 24.9514 52.3292 25.14 52.4903 25.2826C52.6514 25.4252 52.8525 25.5149 53.0662 25.5396C53.28 25.5643 53.4962 25.5229 53.6856 25.4208C53.875 25.3187 54.0286 25.161 54.1255 24.9689C54.2225 24.7768 54.2581 24.5595 54.2277 24.3465C54.1972 24.1335 54.1021 23.935 53.9552 23.7777C53.8083 23.6205 53.6167 23.5121 53.4063 23.4672C53.1617 23.3949 52.8985 23.4222 52.6739 23.5431C52.4494 23.6641 52.2818 23.8689 52.2077 24.113Z" fill="#D67116"/>
<path d="M51.2232 21.0696C51.2578 21.4999 51.4192 21.9104 51.6871 22.249C51.9549 22.5876 52.3172 22.8393 52.728 22.9721C53.1388 23.1049 53.5798 23.1129 53.9952 22.9951C54.4106 22.8773 54.7817 22.639 55.0617 22.3103C55.3417 21.9816 55.5179 21.5773 55.5681 21.1485C55.6184 20.7197 55.5403 20.2856 55.3439 19.9011C55.1474 19.5166 54.8414 19.199 54.4645 18.9884C54.0876 18.7778 53.6567 18.6837 53.2263 18.718C52.6495 18.766 52.1152 19.0403 51.7399 19.4808C51.3647 19.9214 51.1789 20.4925 51.2232 21.0696Z" fill="#B75F08"/>
<path d="M52.6558 19.6912C52.5775 19.8917 52.5627 20.1113 52.6132 20.3205C52.6638 20.5296 52.7773 20.7182 52.9384 20.8608C53.0996 21.0034 53.3006 21.0932 53.5143 21.1179C53.7281 21.1426 53.9443 21.1011 54.1337 20.999C54.3232 20.897 54.4767 20.7392 54.5737 20.5471C54.6706 20.355 54.7062 20.1378 54.6758 19.9248C54.6453 19.7117 54.5502 19.5132 54.4033 19.356C54.2565 19.1987 54.0649 19.0903 53.8544 19.0454C53.6098 18.9731 53.3466 19.0004 53.1221 19.1214C52.8976 19.2424 52.7299 19.4472 52.6558 19.6912Z" fill="#D67116"/>
<path d="M50.04 17.0648C50.0749 17.4952 50.2367 17.9057 50.5048 18.2442C50.773 18.5827 51.1355 18.8341 51.5466 18.9665C51.9576 19.099 52.3987 19.1066 52.8141 18.9883C53.2295 18.8701 53.6004 18.6313 53.8801 18.3022C54.1597 17.9731 54.3355 17.5685 54.3852 17.1395C54.4349 16.7105 54.3562 16.2764 54.1591 15.8921C53.9621 15.5078 53.6555 15.1906 53.2782 14.9806C52.9008 14.7705 52.4697 14.6771 52.0392 14.7121C51.4621 14.7591 50.9274 15.0333 50.5525 15.4745C50.1775 15.9157 49.9932 16.4877 50.04 17.0648Z" fill="#B75F08"/>
<path d="M51.4645 15.701C51.3863 15.9014 51.3714 16.1211 51.4219 16.3302C51.4725 16.5394 51.586 16.728 51.7471 16.8706C51.9083 17.0132 52.1093 17.1029 52.3231 17.1276C52.5368 17.1523 52.753 17.1109 52.9424 17.0088C53.1319 16.9067 53.2854 16.749 53.3824 16.5569C53.4793 16.3648 53.5149 16.1475 53.4845 15.9345C53.454 15.7215 53.3589 15.523 53.2121 15.3657C53.0652 15.2085 52.8736 15.1001 52.6631 15.0552C52.4186 14.984 52.1558 15.0118 51.9316 15.1326C51.7073 15.2534 51.5396 15.4576 51.4645 15.701Z" fill="#D67116"/>
<path d="M47.9126 13.397C47.948 13.8271 48.11 14.2371 48.3782 14.5751C48.6464 14.9132 49.0088 15.1642 49.4196 15.2965C49.8303 15.4287 50.2711 15.4363 50.6862 15.3182C51.1012 15.2001 51.472 14.9617 51.7517 14.633C52.0313 14.3044 52.2073 13.9002 52.2574 13.4716C52.3075 13.043 52.2294 12.6091 52.0331 12.2248C51.8368 11.8405 51.5309 11.523 51.1543 11.3124C50.7776 11.1018 50.347 11.0075 49.9168 11.0415C49.3387 11.0882 48.8029 11.3626 48.4271 11.8043C48.0512 12.246 47.8662 12.8189 47.9126 13.397Z" fill="#B75F08"/>
<path d="M49.3393 12.0255C49.2618 12.2261 49.2478 12.4456 49.299 12.6544C49.3502 12.8633 49.4643 13.0514 49.6257 13.1934C49.7872 13.3354 49.9883 13.4245 50.202 13.4486C50.4156 13.4728 50.6316 13.4308 50.8207 13.3284C51.0097 13.226 51.1629 13.0681 51.2594 12.8759C51.3559 12.6838 51.3912 12.4667 51.3605 12.2539C51.3298 12.041 51.2346 11.8428 51.0877 11.6857C50.9408 11.5287 50.7492 11.4205 50.5389 11.3758C50.2937 11.3044 50.0302 11.3326 49.8056 11.4542C49.5811 11.5758 49.4135 11.7811 49.3393 12.0255Z" fill="#D67116"/>
</svg>
